SplineFontDB: 1.0
FontName: MnSymbolS-Bold10
FullName: MnSymbolS-Bold10
FamilyName: MnSymbolS-Bold10
Weight: Regular
Copyright: Generated from MetaFont bitmap by mftrace 1.1.17, http://www.xs4all.nl/~hanwen/mftrace/ 
Version: 001.001
ItalicAngle: 0
UnderlinePosition: -100
UnderlineWidth: 50
Ascent: 800
Descent: 200
NeedsXUIDChange: 1
UniqueID: 4145517
OS2TypoAscent: 0
OS2TypoAOffset: 1
OS2TypoDescent: 0
OS2TypoDOffset: 1
OS2TypoLinegap: 0
OS2WinAscent: 0
OS2WinAOffset: 1
OS2WinDescent: 0
OS2WinDOffset: 1
HheadAscent: 0
HheadAOffset: 1
HheadDescent: 0
HheadDOffset: 1
OS2Vendor: 'PfEd'
Encoding: Custom
UnicodeInterp: none
NameList: Adobe Glyph List
DisplaySize: -24
AntiAlias: 1
FitToEm: 1
WinInfo: 54 18 9
BeginPrivate: 3
lenIV 1 4
BlueValues 2 []
ForceBold 5 false
EndPrivate
BeginChars: 256 28
StartChar: A
Encoding: 65 65 2
Width: 920
Flags: HMW
Back
131.557 109.955 m 0
 138.688 104.179 147.019 99.4893 156.228 96.1377 c 0
 163.963 93.3223 172.318 91.4453 181.098 90.5938 c 0
 230.592 85.792 307.572 186.38 363.901 259.282 c 0
 463.566 388.27 550.425 522.271 623.41 658.191 c 1
 685.321 658.191 l 1
 683.339 653.382 681.16 648.63 678.799 644.012 c 0
 590.579 471.487 486.028 307.668 367.467 154.224 c 0
 312.354 82.8955 209.042 -55.4258 135.689 -48.3086 c 0
 125.279 -47.2988 115.359 -45.0801 106.06 -41.6953 c 0
 94.9863 -37.665 84.793 -31.9893 75.7119 -24.6338 c 0
 52.2275 -5.6123 41.7969 17.6943 38.751 36.6475 c 0
 34.7734 61.4033 46.9844 105.281 66.0068 134.589 c 0
 85.0303 163.896 103.697 167.591 107.676 142.834 c 0
 108.974 134.759 117.645 121.224 131.557 109.955 c 0
800.604 239.681 m 0
 807.414 185.372 819.674 133.06 837.206 83.4268 c 0
 838.112 80.8613 839.007 79.0498 840.013 77.3076 c 0
 848.688 62.2812 864.461 60.377 869.014 60.6592 c 0
 871.121 60.7891 865.52 60.5127 854.398 54.9014 c 1
 900.498 78.1602 l 2
 936.337 96.2412 966.822 98.2598 968.546 82.666 c 0
 970.271 67.0713 942.583 39.7393 906.744 21.6572 c 2
 860.645 -1.60156 l 2
 826.301 -18.9277 799.414 -24.5166 781.13 -25.6504 c 0
 739.11 -28.2559 720.127 -9.03613 712.71 3.80957 c 0
 711.179 6.46289 709.812 9.22168 708.432 13.1309 c 0
 690.411 64.1455 677.804 117.922 670.795 173.825 c 0
 650.443 336.145 640.362 501.862 640.606 670.163 c 0
 640.631 686.62 669.771 714.018 705.65 731.318 c 0
 741.53 748.619 770.631 749.304 770.607 732.847 c 0
 770.365 565.665 780.379 400.999 800.604 239.681 c 0
383.923 163.754 m 2
 359.357 163.754 360.407 183.018 386.267 206.754 c 0
 412.125 230.489 453.049 249.754 477.614 249.754 c 2
 782.546 249.753 l 2
 807.111 249.753 806.062 230.489 780.203 206.753 c 0
 754.344 183.018 713.42 163.753 688.854 163.753 c 2
 383.923 163.754 l 2
EndSplineSet
Fore
662 250 m 1
 651 356 644 464 642 574 c 1
 578 456 506 343 428 235 c 1
 446 244 464 250 478 250 c 2
 662 250 l 1
641 670 m 2
 641 696 712 745 753 745 c 0
 764 745 771 741 771 733 c 2
 771 727 l 2
 771 382.823 811.907 126.162 840 77 c 0
 847 65 860 61 866 61 c 1
 900 78 l 2
 920 88 938 93 951 93 c 0
 959 93 969 91 969 81 c 0
 969 65 942 39 907 22 c 2
 861 -2 l 2
 829 -18 799 -26 773 -26 c 0
 742 -26 718 -13 708 13 c 0
 692 61 679 111 672 164 c 1
 384 164 l 2
 381 164 378 164 376 165 c 1
 367 154 l 2
 314 85 214 -49 141 -49 c 0
 90 -49 38 -3 38 47 c 0
 38 92 72 159 95 159 c 0
 101 159 106 154 108 143 c 0
 111 122 148 90 185 90 c 0
 234 90 308.988 188.009 364 259 c 0
 463.978 388.017 550 522 623 658 c 1
 641 658 l 1
 641 670 l 2
EndSplineSet
EndChar
StartChar: B
Encoding: 66 66 3
Width: 748
Flags: HMW
Back
118.942 189.196 m 0
 152.838 324.777 177.721 460.276 193.41 594.773 c 1
 155.896 575.847 l 2
 120.058 557.766 89.5723 555.747 87.8486 571.342 c 0
 86.126 586.938 113.813 614.269 149.652 632.351 c 2
 259.052 687.545 l 2
 278.335 697.273 294.562 702.225 308.195 702.537 c 0
 321.829 702.85 328.068 698.415 327.091 689.106 c 0
 311.607 541.669 285.136 392.825 247.854 243.694 c 0
 231.157 176.907 203.386 110.131 164.698 45.2568 c 0
 151.844 23.7002 114.224 -2.12988 80.7246 -12.4004 c 0
 47.2266 -22.6709 30.4727 -13.5117 43.3271 8.04395 c 0
 63.4922 41.8594 98.1035 105.839 118.942 189.196 c 0
429.306 69.9072 m 0
 464.691 69.9062 494.882 76.5078 513.716 82.8359 c 0
 524.985 86.623 532.079 90.1367 536.217 92.5254 c 0
 541.405 95.5215 551.144 102.191 561.652 117.624 c 0
 573.271 134.688 577.596 150.88 579.171 157.18 c 0
 591.092 204.864 579.461 238.653 567.737 258.958 c 0
 529.049 325.966 432.708 350.291 342.01 334.975 c 0
 314.079 330.258 305.452 341.151 320.387 362.276 c 0
 335.322 383.402 366.607 404.557 398.795 415.295 c 0
 493.792 446.987 544.291 466.281 577.091 485.219 c 0
 590.639 493.041 602.093 501.018 606.647 519.237 c 0
 611.854 540.06 609.24 559.585 600.098 575.42 c 0
 579.838 610.51 534.035 621.473 497.954 616.605 c 0
 488.444 615.322 480.789 613.564 476.188 612.36 c 0
 471.023 611.008 459.643 608.078 447.008 600.783 c 0
 437.791 595.462 437.971 595.56 427.801 587.238 c 0
 365.108 535.945 291.195 417.06 247.854 243.694 c 0
 243.218 225.15 210.578 197.892 174.999 182.851 c 0
 139.42 167.809 114.307 170.651 118.942 189.196 c 0
 146.1 297.821 207.696 481.011 350.986 598.247 c 0
 371.284 614.854 394.794 631.485 420.659 646.419 c 0
 457.714 667.812 497.402 684.045 532.581 693.255 c 0
 547.739 697.224 562.315 700.068 576.506 701.982 c 0
 654.012 712.438 706.309 685.448 727.4 648.918 c 0
 739.047 628.747 743.048 603.693 735.559 573.736 c 0
 722.945 523.279 666.312 475.883 603.438 439.584 c 0
 590.674 432.214 577.201 425.117 563.374 418.335 c 1
 625.094 404.702 671.187 373.771 695.04 332.456 c 0
 713.861 299.857 720.028 259.466 708.081 211.678 c 0
 702.816 190.618 693.691 170.172 679.542 149.392 c 0
 644.029 97.2344 588.989 62.1455 562.565 46.8906 c 0
 532.25 29.3877 501.934 16.3232 474.141 6.98535 c 0
 459.076 1.92383 403.084 -16.6064 335.053 -16.6064 c 0
 294.94 -16.6064 235.925 -9.2041 183.876 28.7227 c 0
 171.177 37.9756 188.105 63.3506 221.663 85.3623 c 0
 255.221 107.374 292.763 117.729 305.462 108.475 c 0
 348.595 77.0449 396.134 69.9072 429.306 69.9072 c 0
EndSplineSet
Fore
292 112 m 0
 309.607 112 341.877 70 429 70 c 0
 513 70 584 95 584 196 c 0
 584 284 500 339 395 339 c 0
 356 339 343 334 330 334 c 0
 319 334 313 338 313 345 c 0
 313 350 316 355 320 362 c 0
 365 425 480 429 577 485 c 0
 593 494 609 506 609 540 c 0
 609 588 564 617 513 617 c 0
 484 617 453 608 428 587 c 0
 365 536 291.842 416.789 248 244 c 0
 231 177 203 110 165 45 c 0
 149 19 92 -17 57 -17 c 0
 45 -17 39 -12 39 -5 c 0
 39 11 88 67 119 189 c 0
 153 325 178 460 193 595 c 1
 156 576 l 2
 136 566 118 561 106 561 c 0
 97 561 88 563 88 573 c 0
 88 589 115 615 150 632 c 2
 259 688 l 2
 276 696 296 703 310 703 c 0
 320 703 327 699 327 691 c 0
 327 687 317 605 311 561 c 1
 440 695 577 704 609 704 c 0
 686 704 739 664 739 603 c 0
 739 566 722 496 563 418 c 1
 665 396 715 329 715 256 c 0
 715 109 512 -17 335 -17 c 0
 245 -17 179 25 179 38 c 0
 179 63 255 112 292 112 c 0
EndSplineSet
EndChar
StartChar: C
Encoding: 67 67 4
Width: 612
Flags: HMW
Back
459.976 535.964 m 0
 467.369 554.192 471.562 579.592 460.898 598.062 c 0
 455.201 607.929 447.449 611.741 441.675 613.329 c 0
 438.23 614.276 430.92 616.037 421.783 616.037 c 0
 412.861 616.036 363.44 616.297 318.813 598.24 c 0
 310.978 595.069 304.844 592.008 298.969 588.616 c 0
 286.561 581.452 286.594 580.906 279.679 575.482 c 0
 241.875 545.83 187.845 480.303 160.324 370.222 c 0
 140.366 290.388 147.306 211.989 180.032 155.309 c 0
 214.014 96.4521 265.825 75.8301 304.014 69.4521 c 0
 333.707 64.4922 361.648 68.1348 379.568 72.9482 c 0
 390.317 75.8359 400.319 79.4346 411.366 85.8125 c 0
 417.885 89.5762 424.498 94.2402 431.427 100.054 c 0
 439.284 106.646 448.539 115.617 457.941 126.872 c 0
 477.312 150.062 517.545 173.502 547.747 179.195 c 0
 577.949 184.889 586.739 170.689 567.368 147.501 c 0
 551.474 128.473 532.966 109.757 511.239 91.5283 c 0
 486.199 70.5205 460.956 53.5957 437.715 40.1777 c 0
 399.381 18.0459 359.594 1.83105 324.6 -7.56934 c 0
 265.357 -23.4824 221.75 -20.1523 197.796 -16.1504 c 0
 153.627 -8.77344 91.9678 13.8506 52.7295 81.8105 c 0
 16.8682 143.923 9.33496 227.407 31.4141 315.723 c 0
 66.8271 457.375 145.482 541.57 208.17 590.741 c 0
 227.653 606.023 249.515 620.911 272.62 634.251 c 0
 294.884 647.105 318.049 658.368 340.583 667.486 c 0
 378.262 682.732 440.264 702.55 516.035 702.55 c 0
 529.931 702.55 542.021 700.832 552.9 697.84 c 0
 570.575 692.979 581.342 683.438 588.2 671.56 c 0
 597.616 655.252 603.357 624.878 586.636 583.655 c 0
 575.03 555.047 560.788 526.611 543.832 498.532 c 0
 530.778 476.916 493.06 451.141 459.639 440.998 c 0
 426.217 430.855 409.687 440.168 422.74 461.784 c 0
 437.082 485.534 449.618 510.432 459.976 535.964 c 0
EndSplineSet
Fore
418 449 m 0
 418 463 467 524 467 573 c 0
 467 593 458 616 422 616 c 0
 337 616 296 588 280 575 c 0
 211 522 149 397 149 281 c 0
 149 154 226 67 333 67 c 0
 408 67 444 110 458 127 c 0
 480.141 153.885 530 180 560 180 c 0
 571 180 578 176 578 169 c 0
 578 163 574 156 567 148 c 0
 496 62 363 -20 240 -20 c 0
 117 -20 20 61 20 220 c 0
 20 377 117 577 341 667 c 0
 378 683 440 703 516 703 c 0
 586 703 597 663 597 636 c 0
 597 609 584.74 567.155 544 499 c 0
 527.897 472.061 471 437 436 437 c 0
 425 437 418 441 418 449 c 0
EndSplineSet
EndChar
StartChar: D
Encoding: 68 68 5
Width: 890
Flags: HMW
Back
267.779 315.723 m 0
 292.617 415.071 306.871 514.343 310.223 611.751 c 0
 310.797 628.472 340.381 655.877 376.256 672.923 c 0
 412.131 689.968 440.781 690.232 440.205 673.511 c 0
 436.781 573.974 422.221 472.344 396.691 370.222 c 0
 371.16 268.098 334.809 166.063 288.055 65.6445 c 0
 278.533 45.1943 242.729 18.5938 208.135 6.2666 c 0
 173.541 -6.06055 153.193 0.532227 162.715 20.9814 c 0
 207.658 117.509 242.943 216.375 267.779 315.723 c 0
334.77 86.5693 m 2
 456.479 86.5693 556.455 118.522 614.932 152.284 c 0
 716.986 211.204 739.436 303.87 743.896 321.713 c 0
 760.699 388.926 754.557 442.511 730.545 484.097 c 0
 684.518 563.814 572.332 599.374 429.396 599.374 c 2
 328.088 599.375 l 2
 303.375 599.375 304.432 618.754 330.445 642.631 c 0
 356.459 666.509 397.629 685.888 422.34 685.888 c 2
 523.648 685.888 l 2
 681.766 685.888 806.363 646.766 857.848 557.595 c 0
 884.68 511.124 891.516 451.042 872.807 376.211 c 0
 835.971 228.86 699.355 140.178 641.281 106.648 c 0
 502.59 26.5752 354.371 0.0566406 240.516 0.0566406 c 2
 113.174 0.0566406 l 2
 88.4609 0.0566406 89.5176 19.4355 115.531 43.3135 c 0
 141.545 67.1904 182.713 86.5693 207.426 86.5693 c 2
 334.77 86.5693 l 2
173.348 574.339 m 0
 170.102 572.465 164.975 566.714 159.371 556.61 c 0
 155.598 549.809 151.988 541.134 149.463 531.027 c 0
 144.826 512.483 112.188 485.225 76.6074 470.184 c 0
 41.0293 455.142 15.916 457.984 20.5508 476.528 c 0
 23.9746 490.222 29.123 503.489 36.5566 516.894 c 0
 43.5293 529.464 70.5195 575.818 146.998 619.975 c 0
 182.703 640.588 216.457 653.237 242.254 661.127 c 0
 307.863 681.193 373.705 685.888 422.34 685.888 c 0
 447.053 685.888 445.996 666.509 419.982 642.631 c 0
 393.969 618.754 352.799 599.375 328.088 599.375 c 0
 271.111 599.374 225.557 592.164 195.504 582.973 c 0
 181.822 578.788 174.375 574.933 173.348 574.339 c 0
EndSplineSet
Fore
883 455 m 0
 883 182 536 0 241 0 c 2
 113 0 l 2
 101 0 95 5 95 12 c 0
 95 31 141 72 191 84 c 1
 269 272 303 447 310 599 c 1
 247 597 194 586 173 574 c 0
 170 572 156 559 149 531 c 0
 143 504 78 461 38 461 c 0
 27 461 20 465 20 472 c 0
 20 474 20 475 21 477 c 1
 45 575 165 637 242 661 c 0
 308 681 374 686 422 686 c 2
 524 686 l 2
 753 686 883 606 883 455 c 0
335 87 m 2
 456 87 556 119 615 152 c 0
 713 209 753 307 753 389 c 0
 753 557 585 598 436 599 c 1
 422 441 379 267 298 87 c 1
 335 87 l 2
EndSplineSet
EndChar
StartChar: E
Encoding: 69 69 6
Width: 607
Flags: HMW
Back
490.799 552.871 m 2
 495.836 561.271 499.928 576.896 491.051 592.271 c 0
 488.351 596.948 481.631 606.561 467.142 609.646 c 0
 446.933 613.949 426.116 616.037 405.435 616.037 c 0
 378.727 616.037 357.101 611.853 343.16 608.05 c 0
 328.39 604.021 319.911 599.779 317.045 598.124 c 0
 308.762 593.342 300.379 583.015 294.117 571.584 c 0
 290.111 564.27 286.481 555.461 283.999 545.531 c 0
 278.053 521.745 280.89 501.041 290.883 483.732 c 0
 318.146 436.515 393.15 420.528 454.025 420.528 c 0
 478.737 420.528 477.681 401.148 451.667 377.271 c 0
 425.653 353.394 384.484 334.015 359.772 334.015 c 0
 276.312 334.015 194.101 357.374 163.58 410.234 c 0
 151.127 431.805 146.95 458.479 155.089 491.033 c 0
 157.294 499.854 161.689 514.315 171.083 531.465 c 0
 178.577 545.146 207.695 595.839 290.696 643.759 c 0
 328.373 665.512 365.005 679.535 397.252 688.33 c 0
 420.004 694.536 456.295 702.551 499.688 702.551 c 0
 526.546 702.55 551.854 699.883 575.688 694.807 c 0
 597.147 690.237 610.39 679.562 618.353 665.77 c 0
 627.845 649.329 631.508 622.339 611.72 589.341 c 2
 608.042 583.375 l 2
 594.642 561.653 556.753 535.977 523.469 526.06 c 0
 490.185 516.143 474.048 525.723 487.448 547.443 c 2
 490.799 552.871 l 2
250.806 307.9 m 0
 237.888 300.442 229.533 292.9 226.44 290.134 c 0
 205.277 271.199 180.221 238.605 169.105 194.146 c 0
 163.111 170.17 166.075 148.83 176.364 131.011 c 0
 200.16 89.7949 260.399 69.9072 322.088 69.9072 c 0
 346.667 69.9072 365.999 74.2959 378.63 78.1455 c 0
 390.021 81.6182 400.587 86.1572 409.955 91.5664 c 0
 416.146 95.1406 421.985 99.1289 427.873 103.705 c 0
 440.784 113.739 450.807 124.3 455.804 129.792 c 0
 477.209 153.317 517.952 175.725 546.748 179.807 c 0
 575.543 183.889 581.541 168.108 560.135 144.582 c 0
 542.411 125.103 521.879 105.926 498.17 87.5 c 0
 479.243 72.792 458.267 58.6113 436.303 45.9316 c 0
 396.936 23.2021 359.985 8.55762 331.643 -0.0820312 c 0
 297.042 -10.6279 262.157 -16.6055 227.836 -16.6064 c 0
 156.36 -16.6064 79.7773 4.3125 49.0615 57.5117 c 0
 36.334 79.5566 31.9629 106.719 40.1943 139.647 c 0
 52.6348 189.407 83.8281 242.677 139.512 292.496 c 0
 160.155 310.965 188.401 332.719 224.457 353.535 c 0
 248.543 367.441 273.388 379.301 297.307 388.703 c 0
 364.878 415.263 417.762 420.528 454.025 420.528 c 0
 478.737 420.528 477.681 401.149 451.667 377.271 c 0
 425.653 353.394 384.484 334.015 359.772 334.015 c 0
 345.744 334.015 310.396 333.14 272.411 318.209 c 0
 263.72 314.793 256.905 311.422 250.806 307.9 c 0
EndSplineSet
Fore
405 616 m 0
 336.018 616 281 597 281 521 c 0
 281 443 387 421 454 421 c 0
 466 421 472 416 472 409 c 0
 472 382 401 334 360 334 c 0
 205 334 166 211 166 171 c 0
 166 111 229 70 322 70 c 0
 388 70 427 98 456 130 c 0
 481.207 157.814 529 180 555 180 c 0
 567 180 573 176 573 169 c 0
 573 162 569 154 560 145 c 0
 478 54 343 -17 228 -17 c 0
 145 -17 36 15 36 106 c 0
 36 157 76 271 230 357 c 1
 185 376 151 408 151 458 c 0
 151 579 332 703 500 703 c 0
 574 703 626 689 626 636 c 0
 626 567 538 522 501 522 c 0
 489 522 483 526 483 534 c 0
 483 546 496 555 496 575 c 0
 496 608 461 616 405 616 c 0
EndSplineSet
EndChar
StartChar: F
Encoding: 70 70 7
Width: 814
Flags: HMW
Back
244.669 56.459 m 0
 249.243 56.5703 241.638 56.0996 230.29 49.5479 c 1
 230.359 49.5879 223.933 45.501 223.198 44.8564 c 1
 224.368 45.8828 232.459 53.6543 240.861 67.8389 c 0
 287.298 146.229 327.069 227.519 359.37 310.411 c 0
 398.368 410.492 425.422 512.345 439.699 613.41 c 0
 442.187 631.016 473.256 658.396 509.05 674.525 c 0
 544.844 690.656 571.875 689.458 569.388 671.853 c 0
 554.714 567.988 526.89 462.943 486.336 358.87 c 0
 452.831 272.887 411.395 188.043 362.378 105.295 c 0
 341.562 70.1533 315.209 46.9365 308.085 40.6846 c 0
 294.739 28.9717 277.544 15.9824 256.639 3.91211 c 0
 216.997 -18.9746 180.62 -29.3496 152.755 -30.0254 c 0
 90.3027 -31.54 43.96 -6.3877 18.6953 31.3135 c 0
 10.583 43.4189 32.3652 69.9473 67.3164 90.5293 c 0
 102.268 111.11 137.218 117.989 145.33 105.884 c 0
 169.474 69.8555 209.574 55.6084 244.669 56.459 c 0
798.583 589.689 m 0
 791.023 597.273 770.332 599.374 712.956 599.374 c 2
 393.694 599.374 l 2
 368.538 599.374 348.104 595.397 334.951 591.775 c 0
 321.188 587.986 313.543 584.106 311.036 582.659 c 0
 302.839 577.927 293.633 565.586 288.78 556.731 c 0
 284.825 549.514 281.24 540.819 278.792 531.027 c 0
 274.156 512.482 241.518 485.225 205.938 470.183 c 0
 170.358 455.142 145.245 457.984 149.882 476.528 c 0
 152.062 485.251 156.434 499.617 165.753 516.624 c 0
 173.21 530.233 202.153 580.644 284.688 628.295 c 0
 321.314 649.441 357.065 663.251 388.485 671.903 c 0
 410.572 677.985 445.91 685.888 487.946 685.888 c 2
 807.208 685.888 l 2
 914.971 685.888 914.806 675.67 925.886 663.188 c 0
 930.489 658.003 929.359 651.098 927.733 644.594 c 0
 923.097 626.05 890.458 598.791 854.879 583.75 c 0
 819.299 568.709 794.187 571.552 798.823 590.097 c 0
 798.834 590.14 799.28 588.99 798.583 589.689 c 0
677.111 291.641 m 1
 376.007 291.641 l 2
 351.441 291.641 352.491 310.904 378.35 334.641 c 0
 404.209 358.376 445.133 377.641 469.698 377.641 c 2
 770.803 377.641 l 2
 784.903 377.641 790.675 372.31 788.029 361.729 c 2
 784.35 347.009 l 2
 779.741 328.574 747.297 301.478 711.929 286.525 c 0
 676.561 271.573 651.597 274.399 656.205 292.834 c 2
 659.885 307.554 l 1
 674.472 316.771 690.169 320.688 694.924 316.295 c 0
 699.679 311.903 691.699 300.858 677.111 291.641 c 1
EndSplineSet
Fore
799 590 m 1
 790 597 778 599 713 599 c 2
 557 599 l 1
 543 528 522 454 493 378 c 1
 771 378 l 2
 785 378 791 372 788 362 c 2
 784 347 l 2
 778 320 713 277 673 277 c 0
 661 277 654 282 656 292 c 1
 458 292 l 1
 431 230 399.729 168.162 362 105 c 0
 319.697 34.1812 225 -30 147 -30 c 0
 58 -30 17 27 17 37 c 0
 17 63 88 112 129 112 c 0
 137 112 143 110 145 106 c 0
 167 74 201 59 233 57 c 1
 279 122 400 353 438 599 c 1
 394 599 l 2
 307 599 288 568 279 531 c 0
 272 504 207 461 167 461 c 0
 156 461 149 465 149 472 c 0
 149 474 150 475 150 477 c 1
 178 587 342 686 488 686 c 2
 807 686 l 2
 915 686 915 676 926 663 c 0
 928 660 929 657 929 654 c 0
 929 617 851 574 816 574 c 0
 803 574 796 579 799 590 c 1
EndSplineSet
EndChar
StartChar: G
Encoding: 71 71 8
Width: 679
Flags: HMW
Back
533.839 544.261 m 0
 545.996 565.939 536.399 585.454 534.416 588.888 c 0
 531.783 593.449 525.276 602.646 511.952 606.327 c 0
 488.285 612.867 463.446 616.037 438.84 616.037 c 0
 386.138 616.037 347.134 606.246 321.753 595.97 c 0
 313.426 592.599 306.982 589.378 301.106 585.986 c 0
 287.499 578.13 282.485 573.338 278.63 570.094 c 0
 243.353 540.405 206.542 486.861 188.039 412.852 c 0
 171.431 346.418 178.5 282.081 205.85 234.711 c 0
 216.091 216.974 253.403 158.824 338.284 155.128 c 0
 344.335 154.865 361.604 154.494 380.679 158.488 c 0
 399.561 162.441 412.565 169.124 417.791 172.141 c 0
 429.61 178.965 437.05 185.692 440.94 189.121 c 0
 467.582 212.602 501.727 255.818 516.703 315.723 c 0
 521.339 334.268 553.978 361.525 589.558 376.567 c 0
 625.137 391.608 650.25 388.766 645.614 370.222 c 0
 630.364 309.223 593.117 244.255 526.28 185.349 c 0
 506.072 167.538 478.974 146.617 444.14 126.506 c 0
 396.252 98.8574 351.643 83.0488 314.138 75.1953 c 0
 287.603 69.6396 263.24 67.6953 240.271 68.6953 c 0
 138.634 73.1201 94.6465 133.33 78.5479 161.213 c 0
 48.2578 213.674 40.3008 283.043 59.1289 358.354 c 0
 77.6768 432.548 118.174 510.754 198.461 578.318 c 0
 224.36 600.113 250.644 617.698 274.758 631.621 c 0
 297.394 644.689 320.783 656.011 343.463 665.192 c 0
 411.963 692.925 476.292 702.55 533.093 702.55 c 0
 565.54 702.55 595.537 698.475 623.229 690.822 c 0
 642.117 685.604 654.225 675.366 661.719 662.387 c 0
 678.051 634.1 666.993 602.416 656.45 583.616 c 0
 641.443 556.855 622.5 530.343 598.323 503.958 c 0
 576.743 480.408 535.965 458.098 507.3 454.158 c 0
 478.635 450.218 472.884 466.134 494.464 489.685 c 0
 515.081 512.184 528.103 534.032 533.839 544.261 c 0
350.628 -27.291 m 0
 366.481 -27.291 376.599 -24.4111 378.253 -23.8027 c 0
 378.266 -23.7979 376.749 -24.4551 375.313 -25.2842 c 1
 375.81 -24.998 373.738 -26.2852 373.995 -26.0996 c 0
 451.526 30.0918 515.308 310.142 516.703 315.723 c 0
 521.339 334.268 553.978 361.525 589.558 376.567 c 0
 625.137 391.608 650.25 388.766 645.614 370.222 c 0
 587.053 135.978 538.614 25.8135 434.748 -49.4648 c 0
 424.662 -56.7754 413.481 -64.0947 401.662 -70.9189 c 0
 385.922 -80.0068 367.516 -89.1738 346.701 -96.8291 c 0
 307.232 -111.347 277.748 -113.805 256.376 -113.805 c 0
 193.721 -113.805 134.444 -105.987 79.1299 -90.8633 c 0
 60.5273 -85.7764 70.3301 -62.7139 101.011 -39.3848 c 0
 131.691 -16.0547 171.69 -1.24902 190.293 -6.33594 c 0
 241.585 -20.3604 295.719 -27.291 350.628 -27.291 c 0
EndSplineSet
Fore
481 465 m 0
 481 486 539 526 539 571 c 0
 539 592 526 603 512 606 c 0
 488 613 463 616 439 616 c 0
 348 616 302 590 279 570 c 0
 223 523 179 431 179 342 c 0
 179 222 258 155 344 155 c 0
 452 155 502 259 517 316 c 0
 523 343 588 386 628 386 c 0
 639 386 646 382 646 374 c 2
 646 370 l 1
 590 146 533 -28 347 -97 c 0
 307 -111 278 -114 256 -114 c 0
 194 -114 134 -106 79 -91 c 0
 73 -89 70 -85 70 -80 c 0
 70 -54 141 -5 182 -5 c 0
 191 -5 256 -27 351 -27 c 0
 367 -27 375 -24 377 -24 c 1
 411 3 441 71 466 139 c 1
 397 95 320 69 250 69 c 0
 130 69 50 149 50 280 c 0
 50 506 278 703 533 703 c 0
 608 703 670 688 670 632 c 0
 670 598 646 556 598 504 c 0
 573 476 525 454 499 454 c 0
 488 454 481 458 481 465 c 0
EndSplineSet
EndChar
StartChar: H
Encoding: 72 72 9
Width: 983
Flags: HMW
Back
310.591 359.196 m 0
 326.555 423.053 336.535 486.881 340.37 549.771 c 0
 340.988 559.914 338.777 569.448 334.263 577.268 c 0
 324.796 593.665 308.612 599.379 296.175 599.374 c 0
 263.989 599.362 239.38 595.364 222.814 590.855 c 0
 222.549 590.783 208.033 586.957 198.831 581.644 c 0
 191.101 577.182 183.181 569.61 179.82 566.271 c 0
 161.53 548.097 148.31 526.578 145.241 521.633 c 0
 131.747 499.884 93.8125 474.233 60.5664 464.378 c 0
 27.3203 454.522 11.29 464.175 24.7842 485.923 c 0
 46.1709 520.393 68.0078 544.421 83.0283 559.347 c 0
 106.659 582.829 137.439 607.047 172.482 627.279 c 0
 209.032 648.381 245.522 662.594 277.029 671.169 c 0
 327.713 684.964 370.918 685.88 390.393 685.887 c 0
 401.067 685.892 441.764 685.062 461.565 650.767 c 0
 468.013 639.6 471.26 626.219 470.316 610.754 c 0
 466.364 545.938 456.076 479.993 439.501 413.694 c 0
 407.041 283.853 363.837 154.111 310.25 25.7168 c 0
 301.892 5.69141 266.789 -21.1162 231.896 -34.1201 c 0
 197.003 -47.125 175.467 -41.4268 183.825 -21.4014 c 0
 236.243 104.189 278.672 231.521 310.591 359.196 c 0
764.037 281.126 m 0
 747.825 216.278 737.644 151.461 733.653 87.5801 c 0
 733.011 77.2988 735.237 67.5957 739.781 59.7266 c 0
 749.867 42.2578 767.328 38.4648 775.856 38.8242 c 0
 793.511 39.5664 825.061 42.0352 839.479 46.8389 c 0
 839.512 46.8486 835.813 45.5254 829.481 41.8701 c 0
 817.617 35.0195 810.675 28.7891 809.831 27.2236 c 1
 810.849 29.1123 812.092 32.0557 813.094 36.0625 c 0
 817.729 54.6064 850.368 81.8652 885.947 96.9072 c 0
 921.526 111.948 946.641 109.106 942.005 90.5615 c 0
 939.354 79.959 935.732 72.6562 933.136 67.8408 c 0
 914.987 34.1777 878.303 9.20898 855.83 -3.76562 c 0
 834.427 -16.1221 814.869 -24.0283 799.197 -29.249 c 0
 748.837 -46.0244 695.958 -47.1709 685.783 -47.5996 c 0
 645.03 -49.3135 622.966 -31.9355 612.479 -13.7715 c 0
 605.973 -2.50391 602.734 11.0381 603.709 26.6426 c 0
 607.818 92.4355 618.309 159.357 635.126 226.627 c 0
 667.954 357.938 711.521 489.148 765.475 619.023 c 0
 773.786 639.032 808.86 665.847 843.765 678.878 c 0
 878.669 691.909 900.251 686.246 891.938 666.238 c 0
 839.134 539.125 796.33 410.295 764.037 281.126 c 0
178.501 265.675 m 2
 153.936 265.675 154.985 284.938 180.845 308.675 c 0
 206.703 332.411 247.627 351.675 272.192 351.675 c 2
 695.671 351.674 l 2
 720.236 351.674 719.187 332.41 693.327 308.674 c 0
 667.469 284.938 626.545 265.674 601.979 265.674 c 2
 178.501 265.675 l 2
EndSplineSet
Fore
182 -29 m 0
 182 -20 235 91 286 266 c 1
 179 266 l 2
 167 266 161 270 161 277 c 0
 161 303 231 352 272 352 c 2
 308 352 l 1
 325 421 340 513 340 553 c 0
 340 580 320 599 296 599 c 0
 200 599 176 572 145 522 c 0
 129 495 73 461 38 461 c 0
 26 461 20 465 20 472 c 0
 20 476 22 481 25 486 c 0
 94 598 228 686 390 686 c 0
 450 686 470 647 470 615 c 0
 470 564 450 451 423 352 c 1
 669 352 l 1
 710 485 755 594 765 619 c 0
 777 646 839 686 876 686 c 0
 887 686 894 682 894 674 c 0
 894 672 893 669 892 666 c 0
 772 378 734 157 734 84 c 0
 734 56 755 39 775 39 c 0
 779 39 799 40 816 42 c 1
 837 80 897 107 925 107 c 0
 936 107 943 103 943 95 c 0
 943 67 880 -39 686 -48 c 0
 680 -48 l 0
 630 -48 604 -17 604 21 c 0
 604 70 623 182 649 279 c 1
 632 271 615 266 602 266 c 2
 398 266 l 1
 360 145 320 49 310 26 c 0
 299 -1 236 -41 200 -41 c 0
 189 -41 182 -37 182 -29 c 0
EndSplineSet
EndChar
StartChar: I
Encoding: 73 73 10
Width: 639
Flags: HMW
Back
351.657 599.375 m 2
 327.369 599.375 197.27 601.132 153.014 583.128 c 0
 152.632 582.973 155.185 584.197 156.791 585.126 c 0
 162.703 588.539 167.77 592.605 168.525 593.625 c 1
 165.674 589.781 162.662 582.883 160.943 576.007 c 0
 156.307 557.462 123.668 530.204 88.0889 515.162 c 0
 52.5098 500.121 27.3965 502.964 32.0322 521.508 c 0
 36.9951 541.358 46.5332 556.5 53.6426 566.083 c 0
 70.3428 588.593 96.2002 610.99 130.443 630.761 c 0
 145.884 639.676 160.771 646.675 174.188 652.133 c 0
 249.037 682.583 325.583 685.888 445.909 685.888 c 2
 721.035 685.888 l 2
 745.747 685.888 744.69 666.509 718.677 642.631 c 0
 692.663 618.754 651.495 599.375 626.783 599.375 c 2
 351.657 599.375 l 2
197.079 83.3252 m 1
 197.267 83.4336 192.219 80.2861 192.225 80.291 c 0
 244.964 128.077 283.898 285.918 291.35 315.723 c 0
 325.687 453.069 351.943 540.749 410.089 601.865 c 0
 424.163 616.659 444.864 635.096 475.118 652.562 c 0
 513.396 674.663 551.288 685.888 583.473 685.888 c 0
 608.185 685.888 607.128 666.509 581.114 642.631 c 0
 555.101 618.753 513.932 599.374 489.22 599.374 c 0
 478.562 599.374 501.469 606.929 501.467 606.928 c 0
 501.466 606.927 514.71 616.888 511.303 613.307 c 0
 463.623 563.19 425.494 391.157 420.261 370.222 c 0
 382.404 218.796 344.186 136.846 280.457 79.1035 c 0
 265.927 65.9375 246.709 51.1309 223.428 37.6895 c 0
 186.577 16.4141 157.352 8.50488 144.023 5.41992 c 0
 126.897 1.4541 112.345 0.0566406 98.6533 0.0566406 c 0
 73.9414 0.0566406 74.998 19.4355 101.012 43.3135 c 0
 127.025 67.1914 168.194 86.5703 192.906 86.5703 c 0
 198.915 86.5703 203.399 87.0986 206.46 87.8066 c 0
 208.054 88.1758 202.977 86.7305 197.079 83.3252 c 1
502.148 86.3135 m 2
 526.056 86.3125 540.203 90.0264 542.622 90.79 c 0
 542.635 90.7939 538.473 89.3721 531.476 85.333 c 1
 531.486 85.3389 509.42 61.4961 512.996 75.8008 c 0
 517.605 94.2354 550.051 121.332 585.419 136.284 c 0
 620.786 151.236 645.75 148.409 641.142 129.975 c 0
 636.362 110.861 618.615 75.1553 557.667 39.9668 c 0
 535.337 27.0752 514.622 18.9131 498.353 13.7822 c 0
 458.215 1.125 423.501 0.3125 408.457 0.313477 c 2
 -4.24121 0.313477 l 2
 -28.8066 0.313477 -27.7568 19.5771 -1.89844 43.3135 c 0
 23.9609 67.0488 64.8848 86.3135 89.4502 86.3135 c 2
 502.148 86.3135 l 2
EndSplineSet
Fore
-22 12 m 0
 -22 38 49 86 89 86 c 2
 188 86 l 2
 190 86 191 87 193 87 c 0
 199 87 l 1
 248 141 284 287 291 316 c 0
 325 451 351 538 408 599 c 1
 333 599 l 2
 292 599 207 598 165 587 c 1
 164 585 159 545 88 515 c 0
 73 509 59 506 49 506 c 0
 38 506 31 510 31 517 c 0
 31 544 76 612 174 652 c 0
 249 683 326 686 446 686 c 2
 721 686 l 2
 733 686 739 681 739 674 c 0
 739 648 668 599 627 599 c 2
 500 599 l 1
 417 478 424 218 288 86 c 1
 502 86 l 2
 508 86 514 87 518 87 c 1
 534 109 587 146 624 146 c 0
 635 146 642 142 642 134 c 0
 642 107 564 0 408 0 c 2
 -4 0 l 2
 -16 0 -22 5 -22 12 c 0
EndSplineSet
EndChar
StartChar: J
Encoding: 74 74 11
Width: 777
Flags: HMW
Back
591.81 599.374 m 2
 536.856 599.374 495.505 583.184 490.839 581.353 c 0
 481.659 577.75 474.65 574.273 468.807 570.899 c 0
 453.667 562.158 443.594 551.854 439.333 547.336 c 0
 410.142 516.378 401.235 480.491 399.587 473.896 c 0
 394.95 455.352 362.312 428.094 326.732 413.052 c 0
 291.153 398.011 266.039 400.854 270.676 419.397 c 0
 276.763 443.747 291.644 486.609 337.47 535.209 c 0
 363.097 562.388 396.875 590.218 442.458 616.535 c 0
 466.919 630.657 491.932 642.506 515.903 651.912 c 0
 578.496 676.476 634.48 685.888 686.062 685.888 c 2
 919.098 685.888 l 2
 943.81 685.888 942.753 666.509 916.739 642.631 c 0
 890.726 618.754 849.557 599.375 824.845 599.374 c 2
 591.81 599.374 l 2
797.805 596.555 m 1
 781.553 587.172 807.697 603.096 798.488 596.972 c 0
 706.888 536.059 625.197 170.272 623.737 164.436 c 0
 614.908 129.118 591.785 68.3672 521.863 4.82324 c 0
 501.644 -13.5518 473.675 -35.4893 437.943 -56.1191 c 0
 417.377 -67.9932 375.662 -89.7588 327.619 -102.514 c 0
 298.006 -110.375 271.022 -113.805 245.815 -113.805 c 0
 162.06 -113.805 96.2393 -81.8428 67.4082 -31.9082 c 0
 55.6787 -11.5928 44.0889 22.2373 56.0166 69.9492 c 0
 60.6533 88.4941 93.292 115.752 128.871 130.794 c 0
 164.45 145.835 189.563 142.992 184.928 124.448 c 0
 177.16 93.3779 181.214 64.9658 194.711 41.5898 c 0
 220.721 -3.45898 279.452 -27.292 340.068 -27.292 c 0
 356.693 -27.292 371.729 -24.877 383.25 -21.8193 c 0
 394.566 -18.8145 403.444 -15.1895 411.595 -10.4834 c 0
 417.522 -7.06152 424.356 -2.41602 433.326 5.73535 c 0
 478.952 47.1992 492.468 100.5 494.827 109.938 c 0
 574.912 430.272 628.83 548.286 750.397 629.126 c 0
 754.468 631.833 749.113 629.29 771.456 642.19 c 0
 787.403 651.397 806.015 660.685 827.118 668.481 c 0
 867.272 683.317 897.373 685.888 919.098 685.888 c 0
 943.81 685.888 942.753 666.509 916.739 642.631 c 0
 890.726 618.754 849.557 599.375 824.845 599.374 c 0
 814.131 599.374 802.467 598.005 795.997 595.614 c 0
 795.53 595.441 797.523 596.393 797.805 596.555 c 1
EndSplineSet
Fore
185 129 m 0
 185 124 181 112 181 94 c 0
 181 22 249 -27 340 -27 c 0
 450 -27 486 75 495 110 c 0
 565.066 382.477 614 516 710 599 c 1
 592 599 l 2
 511 599 424 572 400 474 c 0
 393 447 328 403 288 403 c 0
 277 403 270 407 270 415 c 0
 270 417 270 418 271 419 c 2
 306 561 506 686 686 686 c 2
 919 686 l 2
 931 686 937 681 937 674 c 0
 937 648 866 599 825 599 c 0
 815 599 804 598 797 596 c 1
 706 532 625 170 624 164 c 0
 586 13 394 -114 246 -114 c 0
 139 -114 51 -59 51 31 c 0
 51 44 53 57 56 70 c 0
 63 97 128 140 168 140 c 0
 179 140 185 136 185 129 c 0
EndSplineSet
EndChar
StartChar: K
Encoding: 75 75 12
Width: 869
Flags: HMW
Back
166.392 378.991 m 0
 184.646 452.009 194.877 524.987 196.843 596.506 c 1
 155.896 575.847 l 2
 120.058 557.766 89.5723 555.747 87.8486 571.342 c 0
 86.126 586.938 113.813 614.269 149.652 632.351 c 2
 259.052 687.545 l 2
 297.78 707.085 327.059 708.459 327.174 690.743 c 0
 327.719 606.854 317.052 520.485 295.302 433.489 c 0
 263.228 305.192 220.408 176.994 167.203 50.1572 c 0
 158.795 30.1133 123.662 3.31445 88.7803 -9.66211 c 0
 53.8994 -22.6377 32.4141 -16.9014 40.8223 3.14355 c 0
 92.832 127.133 134.865 252.887 166.392 378.991 c 0
716.628 615.615 m 0
 710.405 626.393 695.363 630.955 680.974 630.955 c 0
 674.624 630.955 675.045 630.292 673.489 629.974 c 0
 650.848 625.343 603.884 606.276 542.909 571.072 c 0
 463.715 525.349 413.362 482.56 399.086 461.878 c 0
 396.377 457.954 395.151 455.217 394.653 453.225 c 0
 387.687 425.358 420.928 318.691 484.294 208.939 c 0
 537.334 117.075 590.147 62.6182 622.43 55.5117 c 0
 625.542 54.8262 618.097 56.0938 624.277 55.166 c 0
 626.327 54.8584 623.85 55.1475 625.56 55.0166 c 0
 625.812 54.9971 587.173 54.9893 626.118 54.9893 c 0
 633.173 54.9893 672.746 55.3662 703.651 68.3682 c 0
 707.324 69.9131 710.182 71.3643 712.379 72.6328 c 0
 723.771 79.21 728 87.8652 730.885 94.6094 c 0
 731.791 96.7266 733.048 99.7832 734.338 104.941 c 0
 738.769 122.666 764.247 144.031 791.209 152.633 c 0
 818.172 161.234 836.458 153.831 832.027 136.106 c 0
 830.953 131.81 828.906 124.75 825.537 116.876 c 0
 805.804 70.7539 762.073 40.8574 738.562 27.2832 c 0
 727.212 20.7295 715.735 15.1357 704.472 10.3975 c 0
 684.445 1.97266 637.437 -16.3906 569.024 -16.3906 c 0
 560.007 -16.3906 564.744 -16.333 562.042 -16.125 c 0
 552.427 -15.3857 561.812 -16.3252 555.685 -15.4053 c 0
 546.202 -13.9814 555.483 -15.5674 549.797 -14.3154 c 0
 486.064 -0.285156 423.245 94.1914 388.819 153.816 c 0
 345.712 228.479 282.837 365.553 296.964 422.06 c 0
 299.625 432.705 305.453 443.946 313.088 455.008 c 0
 352.888 512.662 450.507 578.189 516.726 616.422 c 0
 552.385 637.011 640.218 685.122 706.918 698.763 c 0
 717.653 700.959 728.174 702.335 738.068 702.335 c 0
 777.791 702.335 802.44 687.473 812.103 670.738 c 0
 817.801 660.869 819.951 648.316 816.104 632.928 c 0
 811.673 615.203 786.193 593.838 759.231 585.236 c 0
 732.27 576.635 713.983 584.039 718.415 601.764 c 0
 719.61 606.546 719.131 611.279 716.628 615.615 c 0
EndSplineSet
Fore
310 703 m 0
 329 703 327 692 327 685 c 0
 327 603 316.647 518.09 295 433 c 0
 262.47 305.135 220 177 167 50 c 0
 157 25 95 -17 57 -17 c 0
 46 -17 39 -12 39 -5 c 0
 39 6 190 332 197 597 c 1
 156 576 l 2
 136 566 118 561 106 561 c 0
 97 561 88 563 88 573 c 0
 88 589 115 615 150 632 c 2
 259 688 l 2
 280 698 297 703 310 703 c 0
718 597 m 0
 718 601 719 603 719 606 c 0
 719 620 705 631 681 631 c 0
 631 631 406 498 395 453 c 1
 394 451 394 448 394 444 c 0
 394 407 426 309 484 209 c 0
 538 116 595 57 626 55 c 0
 716 55 730 86 734 105 c 0
 740 127 779 156 812 156 c 0
 825 156 833 151 833 141 c 0
 833 140 832 138 832 136 c 1
 812 56 703 -16 569 -16 c 0
 504 -16 440.302 65.1742 389 154 c 0
 350.228 221.132 295 339 295 403 c 0
 295 410 296 417 297 422 c 0
 321 520 632 702 738 702 c 0
 792 702 818 676 818 648 c 0
 818 608 767 582 739 582 c 0
 726 582 718 587 718 597 c 0
EndSplineSet
EndChar
StartChar: L
Encoding: 76 76 13
Width: 785
Flags: HMW
Back
633.932 27.3896 m 0
 595.464 5.17969 565.832 -3.81934 551.84 -7.67969 c 0
 538.445 -11.375 517.005 -16.3643 492.399 -16.3643 c 0
 366.338 -16.3643 269.885 25.5303 153.521 25.5303 c 0
 149.006 25.5303 144.566 25.0117 141.889 24.3535 c 0
 140.549 24.0234 145.654 25.4307 153.002 29.6719 c 1
 152.997 29.6689 162.98 36.8115 161.111 35.0352 c 0
 134.572 9.81934 89.918 -13.0654 61.4365 -16.0459 c 0
 32.9551 -19.0264 31.3789 -0.980469 57.918 24.2363 c 0
 75.0566 40.5215 98.874 58.957 126.79 75.0742 c 0
 167.533 98.5967 199.812 107.867 214.194 111.403 c 0
 232.421 115.884 247.569 117.53 261.127 117.53 c 0
 387.188 117.53 483.641 75.6357 600.005 75.6357 c 0
 610.257 75.6357 616.941 77.4824 617.48 77.6309 c 0
 617.765 77.709 615.221 77.1221 607.72 72.791 c 1
 607.723 72.793 594.444 62.7598 596.665 65.4229 c 0
 601.069 70.7041 605.61 79.3818 608.074 89.2373 c 0
 612.729 107.852 647.874 136.976 686.524 154.246 c 0
 725.175 171.516 752.767 170.425 748.113 151.81 c 0
 740.815 122.616 722.663 101.058 717.558 94.9346 c 0
 697.817 71.2637 670.719 48.6279 633.932 27.3896 c 0
536.438 580.023 m 0
 523.591 602.275 502.639 610.325 485.328 610.325 c 0
 468.104 610.325 455.969 607.096 453.175 605.993 c 0
 453.17 605.991 454.887 606.773 456.109 607.479 c 1
 453.916 606.213 458.039 608.707 457.12 608.096 c 0
 391.941 564.758 327.186 385.305 303.105 288.985 c 0
 271.422 162.25 242.002 91.4531 149.668 24.7393 c 0
 146.854 22.707 150.834 25.085 135.162 14.7051 c 0
 98.9131 -9.30176 58.0039 -22.0977 43.8457 -13.8564 c 0
 29.6885 -5.61426 47.6172 20.5586 83.8662 44.5664 c 0
 146.552 86.083 82.8564 43.8564 83.3115 44.1855 c 0
 123.81 73.4453 152.917 185.63 163.118 226.437 c 0
 225.349 475.354 316.051 578.267 405.119 637.489 c 0
 409.897 640.666 411.122 642.02 429.905 652.864 c 0
 446.232 662.29 465.021 671.87 486.561 680.374 c 0
 533.473 698.896 568.95 702.292 592.895 702.292 c 0
 645.51 702.292 667.215 673.462 674.98 660.012 c 0
 687.302 638.671 691.006 611.295 683.19 580.032 c 0
 678.539 561.424 643.406 532.311 604.77 515.048 c 0
 566.133 497.784 538.552 498.875 543.203 517.482 c 0
 548.897 540.259 546.223 563.077 536.438 580.023 c 0
EndSplineSet
Fore
543 514 m 0
 543 519 546 525 546 541 c 0
 546 579 522 610 485 610 c 0
 467 610 456 607 454 606 c 0
 390 559 327 384 303 289 c 0
 284.584 216.104 267 162 238 116 c 1
 246 117 254 118 261 118 c 0
 387 118 484 76 600 76 c 2
 602 76 l 1
 610 94 618.123 123.721 687 154 c 0
 705.032 161.927 721 167 732 167 c 0
 742 167 749 163 749 156 c 0
 749 154 748 153 748 152 c 0
 726 64 586 -16 492 -16 c 0
 366 -16 270 26 154 26 c 0
 147 26 99 -16 56 -16 c 0
 45 -16 39 -13 39 -4 c 0
 39 11 67 35 93 53 c 1
 187 156 162 552 487 680 c 0
 533 699 569 702 593 702 c 0
 653 702 687 663 687 612 c 0
 687 602 686 591 683 580 c 0
 677 553 602 503 559 503 c 0
 549 503 543 506 543 514 c 0
EndSplineSet
EndChar
StartChar: M
Encoding: 77 77 14
Width: 1375
Flags: HMW
Back
633.695 284.713 m 0
 646.344 252.257 661.271 221.13 678.375 191.505 c 0
 687.088 176.415 696.365 161.715 706.194 147.428 c 1
 652.094 104.041 l 1
 630.354 34.3359 l 1
 622.838 34.332 617.097 36.1396 614.075 39.9492 c 0
 593.504 65.8896 574.864 93.333 558.231 122.142 c 0
 540.612 152.658 525.245 184.705 512.223 218.12 c 0
 476.587 309.565 445.165 403.271 418.028 499.021 c 1
 402.212 432.383 382.105 365.205 357.814 298.469 c 0
 350.172 277.472 342.13 256.54 333.705 235.711 c 0
 290.532 128.979 216.396 -54.1602 132.141 -48.332 c 0
 116.848 -47.2744 102.277 -44.2441 88.7031 -39.3047 c 0
 82.3906 -37.0078 76.293 -34.2959 70.4404 -31.1699 c 0
 59.6758 -25.4209 50.2197 -18.7803 42.875 -10.499 c 0
 32.125 1.62207 36.542 41.001 52.7324 77.3994 c 0
 68.9238 113.799 90.7891 133.502 101.538 121.382 c 0
 105.927 116.434 113.823 110.5 123.062 105.566 c 0
 128.091 102.881 133.373 100.528 138.871 98.5273 c 0
 150.693 94.2246 163.519 91.5488 176.978 90.6172 c 0
 214.249 88.0391 241.996 149.807 289.45 267.122 c 0
 296.105 283.576 302.42 300.015 308.402 316.452 c 0
 346.159 420.19 371.315 524.748 383.274 632.249 c 1
 383.701 632.037 l 1
 383.753 632.037 l 1
 383.693 647.07 407.26 671.124 438.914 687.63 c 0
 472.682 705.236 502.929 707.617 506.43 692.944 c 0
 539.923 552.603 582.415 416.3 633.695 284.713 c 0
1199.78 220.359 m 0
 1197.74 174.08 1200.8 128.889 1208.93 85.5869 c 0
 1209.63 81.8633 1210.88 78.5029 1212.57 75.5732 c 0
 1216.76 68.3281 1224.97 63.1855 1232.14 61.8926 c 1
 1264.38 78.1602 l 2
 1300.22 96.2422 1330.7 98.2598 1332.43 82.665 c 0
 1334.15 67.0703 1306.46 39.7393 1270.62 21.6572 c 2
 1224.53 -1.60156 l 2
 1187.92 -20.0703 1161.03 -24.5654 1143.5 -24.916 c 0
 1134.82 -25.0898 1101.02 -25.1973 1085.27 2.0752 c 0
 1082.48 6.90527 1080.46 12.3369 1079.33 18.3721 c 0
 1070.88 63.4121 1067.67 110.48 1069.81 158.885 c 0
 1075.18 280.041 1087.53 402.478 1106.8 525.657 c 1
 1216.63 632.865 l 1
 1251.88 675.705 l 1
 1251.87 674.816 1251.78 673.879 1251.6 672.894 c 0
 1223.71 520.889 1206.4 369.684 1199.78 220.359 c 0
843.631 324.142 m 0
 972.082 444.467 1097.94 567.333 1221.07 692.597 c 0
 1240.35 712.209 1254.01 701.367 1251.55 668.396 c 0
 1249.1 635.424 1231.46 592.746 1212.18 573.133 c 0
 1087.81 446.61 960.779 322.605 831.216 201.237 c 0
 770.621 144.475 707.67 90.5986 642.629 39.7881 c 0
 623.909 25.1641 612.957 42.0811 618.182 77.5488 c 0
 623.406 113.016 642.839 153.67 661.558 168.294 c 0
 724.65 217.582 785.456 269.646 843.631 324.142 c 0
EndSplineSet
Fore
383.621 632 m 0
 383.621 660 452 703 488 703 c 0
 498 703 505 699 506 693 c 0
 552 500 623 288 682 185 c 1
 738 229 792 276 844 324 c 2
 1221 693 l 2
 1228 699 1233 702 1238 702 c 0
 1247 702 1252 693 1252 676 c 0
 1252 670 1199 390 1199 196 c 0
 1199 141 1207 86 1213 76 c 0
 1217 68 1225 63 1232 62 c 1
 1264 78 l 2
 1284 88 1302 93 1315 93 c 0
 1323 93 1333 91 1333 81 c 0
 1333 65 1305 39 1271 22 c 2
 1225 -2 l 2
 1191 -18 1164 -25 1142 -25 c 0
 1105 -25 1084 -6 1079 18 c 0
 1073 54 1069 92 1069 130 c 0
 1069 211 1084 365 1097 461 c 1
 831 201 l 2
 777 150 644 35 630 35 c 1
 630 34 619 33 614 40 c 0
 558 111 500 208 418 499 c 1
 397 411 367 318 334 236 c 0
 291 131 219 -48 136 -48 c 0
 113 -48 67 -38 43 -10 c 0
 39 -6 37 2 37 13 c 0
 37 57 70 125 94 125 c 0
 101 125 126 91 180 91 c 0
 203 91 233.924 113.028 308 316 c 0
 345.961 420.014 371.621 525 383.621 632 c 0
EndSplineSet
EndChar
StartChar: N
Encoding: 78 78 15
Width: 938
Flags: HMW
Back
897.202 631.782 m 1
 895.128 627.173 891.754 618.953 887.254 606.593 c 0
 874.638 571.931 862.737 532.42 846.901 478.831 c 0
 802.216 327.613 762.144 176.169 726.729 24.6201 c 1
 724.82 29.0107 l 1
 671.275 29.0107 l 1
 706.456 176.99 745.945 325.117 789.684 473.131 c 0
 797.555 499.767 818.558 571.594 837.843 624.577 c 0
 855.745 673.762 868.729 697.82 872.507 704.795 c 0
 882.291 722.855 891.351 735.514 899.214 744.057 c 0
 960.975 811.156 1039.32 825.186 1091.04 825.187 c 0
 1106.35 825.187 1109.07 794.051 1097.11 755.687 c 0
 1085.14 717.322 1063 686.186 1047.69 686.186 c 0
 984.384 686.185 929.826 664.331 897.202 631.782 c 1
61.8809 105.336 m 0
 66.7002 102.823 71.7412 100.607 76.9727 98.7031 c 0
 89.085 94.2949 102.225 91.5596 116.013 90.6182 c 0
 124.973 90.0059 130.074 91.7129 133.878 93.1758 c 0
 146.967 98.2109 156.271 107.536 170.959 143.399 c 0
 174.122 151.124 177.516 160.022 181.051 169.733 c 0
 184.956 180.465 189.028 192.165 193.301 204.465 c 0
 242.221 345.303 273.272 487.73 285.223 632.446 c 1
 285.383 632.037 l 1
 347.865 632.037 l 1
 332.733 506.082 302.221 357.666 244.735 192.167 c 0
 240.456 179.85 235.737 166.241 230.462 151.749 c 0
 225.685 138.624 220.447 124.757 214.552 110.36 c 0
 182.947 33.1982 144.44 -26.9336 100.707 -43.7559 c 0
 90.8447 -47.5488 81.083 -49.0088 71.1934 -48.333 c 0
 55.5654 -47.2656 40.6748 -44.1777 26.8047 -39.1299 c 0
 20.8145 -36.9492 15.0146 -34.4023 9.42773 -31.4893 c 0
 -1.69043 -25.6924 -11.4707 -18.9639 -19.041 -10.5928 c 0
 -29.8604 1.37207 -25.5381 40.665 -9.39355 77.1162 c 0
 6.75195 113.567 28.6348 133.44 39.4541 121.477 c 0
 44.0586 116.385 52.291 110.336 61.8809 105.336 c 0
596.862 232.312 m 0
 607.595 209.886 619.134 187.98 631.462 166.628 c 0
 658.134 120.432 688.498 76.8184 722.352 36.0938 c 0
 731.769 24.7656 712.94 -0.598633 680.323 -20.5225 c 0
 647.708 -40.4453 613.594 -47.4209 604.177 -36.0928 c 0
 569.565 5.54395 538.552 50.0947 511.318 97.2646 c 0
 498.73 119.067 486.95 141.43 475.995 164.321 c 0
 404.326 314.095 340.945 468.867 286.061 628.141 c 0
 281.244 642.115 304.609 668.2 338.215 686.365 c 0
 371.82 704.531 403.002 707.932 407.817 693.957 c 0
 462.446 535.43 525.53 381.38 596.862 232.312 c 0
EndSplineSet
Fore
285 632 m 0
 285 660 353 703 390 703 c 0
 399 703 405.954 699.985 408 694 c 0
 475 498 575 265 631 167 c 0
 648 138 666 111 685 84 c 1
 721 232 817.304 601.836 873 705 c 0
 925.285 801.846 1028 825 1091 825 c 0
 1101 825 1105 815 1105 801 c 0
 1105 761 1074 686 1048 686 c 0
 984 686 930 664 897 632 c 1
 874 580 793 308 727 25 c 1
 725 29 l 1
 725 4 661 -42 620 -42 c 0
 613 -42 607 -40 604 -36 c 0
 554 25 511.276 90.1317 476 164 c 0
 422.419 276.2 373 391 329 509 c 1
 311 413 284 306 245 192 c 2
 230 152 l 2
 218 117 160 -48 76 -48 c 0
 52 -48 6 -38 -19 -11 c 0
 -23 -6 -25 2 -25 13 c 0
 -25 58 9 125 32 125 c 0
 35 125 37 124 39 121 c 0
 56 104 92 91 118 91 c 0
 145 91 156 102 181 170 c 2
 193 204 l 2
 242 345 273 488 285 632 c 0
EndSplineSet
EndChar
StartChar: O
Encoding: 79 79 16
Width: 901
Flags: HMW
Back
354.992 614.838 m 0
 305.495 586.262 230.213 514.191 202.795 404.521 c 0
 183.505 327.36 189.827 248.251 226.48 184.767 c 0
 268.775 111.512 345.447 69.9072 434.124 69.9072 c 0
 498.383 69.9072 550.072 88.7256 585.009 108.896 c 0
 666.711 156.067 719.459 241.814 737.937 315.723 c 0
 758.487 397.929 751.284 478.252 718.71 534.67 c 0
 687.524 588.684 637.055 616.036 578.316 616.036 c 0
 559.741 616.036 546.787 612.412 540.483 608.771 c 0
 532.77 604.318 526.096 597.913 522.975 595.014 c 0
 498.97 572.708 470.438 534.646 447.374 484.029 c 0
 438.095 463.666 402.435 437.02 367.775 424.55 c 0
 333.115 412.08 312.517 418.485 321.796 438.849 c 0
 343.708 486.935 378.96 544.398 432.238 593.904 c 0
 454.144 614.259 481.424 635.521 514.135 654.407 c 0
 573.001 688.394 627.581 702.55 672.569 702.55 c 0
 783.076 702.55 829.166 637.346 846.012 608.168 c 0
 889.311 533.176 884.094 439.206 866.847 370.222 c 0
 836.422 248.521 741.172 138.21 611.357 63.2617 c 0
 576.832 43.3281 467.309 -16.6064 339.872 -16.6064 c 0
 223.258 -16.6064 142.176 36.7969 99.1787 111.269 c 0
 62.1064 175.477 50.9941 258.462 73.8838 350.021 c 0
 99.0596 450.723 177.713 573.333 328.645 660.474 c 0
 348.951 672.197 370.021 682.859 391.009 692.032 c 0
 426.714 707.639 452.822 705.638 449.286 687.566 c 0
 445.75 669.495 413.901 642.162 378.195 626.556 c 0
 369.868 622.916 362.368 619.097 354.992 614.838 c 0
EndSplineSet
Fore
62 257 m 0
 62 541 376 703 432 703 c 0
 443 703 450 699 450 691 c 0
 450 676 421.831 646.387 378 627 c 0
 274 581 192 449 192 320 c 0
 192 179 289 70 434 70 c 0
 624 70 749 233 749 406 c 0
 749 525 686 616 578 616 c 0
 547 616 537.042 607.955 523 595 c 0
 499.071 572.923 470 535 447 484 c 0
 435 456 373 418 338 418 c 0
 326 418 320 422 320 430 c 0
 320 433 320 436 322 439 c 0
 402 615 561 703 673 703 c 0
 816 703 879 595 879 470 c 0
 879 183 565 -17 340 -17 c 0
 169 -17 62 100 62 257 c 0
EndSplineSet
EndChar
StartChar: P
Encoding: 80 80 17
Width: 808
Flags: HMW
Back
260.283 285.735 m 0
 287.631 395.129 304.381 504.434 310.234 612.043 c 0
 311.154 628.926 341.01 656.332 376.877 673.217 c 0
 412.746 690.102 441.111 690.103 440.193 673.22 c 0
 434.23 563.634 417.174 452.149 389.193 340.233 c 0
 361.215 228.317 322.449 116.495 273.297 6.1875 c 0
 264.262 -14.0869 228.748 -40.7783 194.023 -53.3916 c 0
 159.299 -66.0049 138.449 -59.7871 147.484 -39.5127 c 0
 195.111 67.373 232.936 176.343 260.283 285.735 c 0
173.348 574.339 m 0
 170.102 572.465 164.975 566.714 159.371 556.61 c 0
 155.598 549.809 151.988 541.134 149.463 531.027 c 0
 144.826 512.483 112.188 485.225 76.6074 470.184 c 0
 41.0293 455.142 15.916 457.984 20.5508 476.528 c 0
 23.9746 490.222 29.123 503.489 36.5566 516.894 c 0
 43.5293 529.464 70.5195 575.818 146.998 619.975 c 0
 182.703 640.588 216.457 653.237 242.254 661.127 c 0
 307.863 681.193 373.705 685.888 422.34 685.888 c 0
 447.053 685.888 445.996 666.509 419.982 642.631 c 0
 393.969 618.754 352.799 599.375 328.088 599.375 c 0
 271.111 599.374 225.557 592.164 195.504 582.973 c 0
 181.822 578.788 174.375 574.933 173.348 574.339 c 0
632.045 332.03 m 0
 641.545 337.516 651.879 345.012 660.76 353.499 c 0
 696.93 388.063 707.252 430.623 709.168 438.293 c 0
 716.887 469.165 713.369 495.094 700.967 516.576 c 0
 672.072 566.62 588.932 599.374 460.893 599.374 c 2
 328.088 599.375 l 2
 303.375 599.375 304.432 618.754 330.445 642.631 c 0
 356.459 666.509 397.629 685.888 422.34 685.888 c 2
 555.146 685.888 l 2
 670.279 685.888 787.475 660.729 828.27 590.074 c 0
 843.182 564.246 847.92 532.154 838.08 492.791 c 0
 822.613 430.924 783.02 384.697 754.133 357.093 c 0
 727.703 331.835 693.984 306.943 658.395 286.395 c 0
 644.703 278.49 647.773 280.401 645.102 278.951 c 0
 541.654 222.764 438.152 205.842 362.51 205.842 c 0
 337.799 205.842 338.855 225.221 364.869 249.099 c 0
 390.883 272.977 432.051 292.355 456.762 292.355 c 0
 518.211 292.355 584.537 306.159 628.047 329.791 c 0
 628.354 329.958 577.281 300.413 632.045 332.03 c 0
EndSplineSet
Fore
145 -48 m 0
 145 -31 286 229 309 599 c 1
 247 597 193 586 173 574 c 0
 170 572 156 559 149 531 c 0
 143 504 78 461 38 461 c 0
 27 461 20 465 20 472 c 0
 20 474 20 475 21 477 c 1
 45 575 165 637 242 661 c 0
 308 681 374 686 422 686 c 2
 555 686 l 2
 668 686 843 659 843 533 c 0
 843 484 814 376 658 286 c 2
 645 279 l 2
 541.774 223.417 438 206 363 206 c 0
 358 206 354 207 351 208 c 1
 328 137 301 69 273 6 c 0
 261 -22 199 -60 163 -60 c 0
 152 -60 145 -56 145 -48 c 0
364 248 m 1
 396 278 438 292 457 292 c 0
 518 292 585 306 628 330 c 1
 606 317 l 1
 632 332 l 2
 678.909 359.158 713 417 713 469 c 0
 713 573 570 599 461 599 c 2
 435 599 l 1
 422 476 397 358 364 248 c 1
EndSplineSet
EndChar
StartChar: Q
Encoding: 81 81 18
Width: 936
Flags: HMW
Back
505.188 80.0391 m 0
 529.697 88.9443 551.501 99.4287 569.921 110.064 c 0
 633.031 146.501 707.262 215.479 732.323 315.723 c 0
 750.636 388.975 741.665 458.215 711.011 511.307 c 0
 672.394 578.191 601.632 616.037 521.162 616.037 c 0
 483.819 616.037 431.782 608.451 384.902 581.386 c 0
 315.152 541.115 270.4 467.449 254.622 404.34 c 0
 241.882 353.378 248.306 305.07 269.94 267.6 c 0
 299.736 215.992 353.769 189.457 412.604 189.457 c 0
 458.226 189.457 503.121 197.366 542.443 209.998 c 0
 576.29 220.87 594.096 212.441 582.188 191.183 c 0
 570.28 169.924 533.146 143.847 499.3 132.974 c 0
 434.417 112.131 374.248 102.943 318.353 102.943 c 0
 208.342 102.943 159.318 165.211 142.638 194.102 c 0
 118.353 236.164 110.656 289.621 125.712 349.842 c 0
 153.262 460.042 240.691 558.973 358.554 627.021 c 0
 391.213 645.877 494.82 702.551 615.415 702.551 c 0
 723.697 702.55 798.738 653.35 838.313 584.805 c 0
 871.684 527.007 881.844 452.662 861.234 370.222 c 0
 831.19 250.047 728.725 140.901 596.27 64.4287 c 0
 560.856 43.9834 519.256 23.584 472.471 6.58691 c 0
 402.04 -19 306.676 -43.2568 155.102 -43.2568 c 0
 130.39 -43.2568 131.446 -23.8779 157.46 0 c 0
 183.473 23.877 224.642 43.2559 249.354 43.2559 c 0
 350.679 43.2568 433.105 53.8525 505.188 80.0391 c 0
733.861 -53.9424 m 0
 749.74 -53.9424 763.079 -50.8281 767.901 -48.71 c 0
 767.902 -48.709 765.604 -49.9209 765.671 -49.8818 c 0
 765.674 -49.8799 762.154 -51.7607 761.512 -52.4697 c 1
 766.396 -47.0811 771.417 -37.5186 773.985 -27.249 c 0
 778.621 -8.70508 811.26 18.5537 846.84 33.5947 c 0
 882.419 48.6367 907.532 45.7939 902.896 27.249 c 0
 894.66 -5.69238 872.152 -30.7188 866.085 -37.4121 c 0
 848.671 -56.6221 821.883 -78.2754 792.02 -95.5166 c 0
 781.456 -101.615 770.032 -107.622 755.706 -113.916 c 0
 737.791 -121.786 691.919 -140.455 639.609 -140.455 c 0
 458.799 -140.455 321.152 -43.2568 155.102 -43.2568 c 0
 130.39 -43.2568 131.446 -23.8779 157.459 0 c 0
 183.473 23.877 224.642 43.2559 249.354 43.2559 c 0
 430.164 43.2568 567.812 -53.9414 733.861 -53.9424 c 0
EndSplineSet
Fore
118 290 m 0
 118 495 384 703 615 703 c 0
 774 703 872 596 872 454 c 0
 872 206 606 55 466 4 c 1
 555 -23 640 -54 734 -54 c 0
 746 -54 757 -52 763 -50 c 1
 775 -34 772 2 847 34 c 0
 862 40 876 43 886 43 c 0
 897 43 903 39 903 31 c 2
 903 27 l 1
 881 -61 745 -140 640 -140 c 0
 459 -140 321 -43 155 -43 c 0
 147 -43 137 -41 137 -31 c 0
 137 -5 208 43 249 43 c 0
 329 43 462 48 570 110 c 0
 686 177 742 288 742 390 c 0
 742 522 649 616 521 616 c 0
 331 616 248 448 248 353 c 0
 248 260 316 189 413 189 c 0
 502 189 541 215 568 215 c 0
 579 215 586 211 586 203 c 0
 586 163 471 103 318 103 c 0
 193 103 118 185 118 290 c 0
EndSplineSet
EndChar
StartChar: R
Encoding: 82 82 19
Width: 986
Flags: HMW
Back
265.697 307.392 m 0
 291.232 409.531 306.18 511.591 310.225 611.837 c 0
 310.902 628.606 340.566 656.012 376.439 673.01 c 0
 412.314 690.008 440.879 690.194 440.203 673.425 c 0
 436.072 571.095 420.816 466.729 394.607 361.89 c 0
 368.398 257.05 331.379 152.301 283.961 49.1377 c 0
 274.584 28.7402 238.867 2.11133 204.234 -10.3018 c 0
 169.6 -22.7148 149.102 -16.2344 158.477 4.16309 c 0
 204.172 103.577 240.162 205.252 265.697 307.392 c 0
173.348 574.339 m 0
 170.102 572.465 164.975 566.714 159.371 556.61 c 0
 155.598 549.809 151.988 541.134 149.463 531.027 c 0
 144.826 512.483 112.188 485.225 76.6074 470.184 c 0
 41.0293 455.142 15.916 457.984 20.5508 476.528 c 0
 23.9746 490.222 29.123 503.489 36.5566 516.894 c 0
 43.5293 529.464 70.5195 575.818 146.998 619.975 c 0
 182.703 640.588 216.457 653.237 242.254 661.127 c 0
 307.863 681.193 373.705 685.888 422.34 685.888 c 0
 447.053 685.888 445.996 666.509 419.982 642.631 c 0
 393.969 618.754 352.799 599.375 328.088 599.375 c 0
 271.111 599.374 225.557 592.164 195.504 582.973 c 0
 181.822 578.788 174.375 574.933 173.348 574.339 c 0
651.76 390.747 m 0
 662.141 396.74 670.346 404.163 677.607 412.741 c 0
 698.125 436.974 704.424 462.904 705.988 469.157 c 0
 714.232 502.138 711.658 526.003 701.309 543.927 c 0
 670.418 597.431 571.971 599.374 436.033 599.374 c 2
 328.088 599.375 l 2
 303.375 599.375 304.432 618.754 330.445 642.631 c 0
 356.459 666.509 397.629 685.888 422.34 685.888 c 2
 530.285 685.888 l 2
 652.789 685.888 788.096 687.599 828.611 617.425 c 0
 841.973 594.283 844.852 563.473 834.898 523.656 c 0
 827.127 492.573 812.072 462.935 786.303 432.498 c 0
 762.527 404.419 725.701 372.59 678.107 345.111 c 0
 654.178 331.296 629.996 319.924 606.98 310.868 c 0
 525.92 278.976 456.215 274.43 419.562 274.43 c 0
 394.852 274.43 395.908 293.809 421.922 317.687 c 0
 447.936 341.564 489.104 360.943 513.814 360.943 c 0
 523.945 360.943 580.338 361.084 631.773 381.321 c 0
 640.602 384.795 646.982 387.989 651.76 390.747 c 0
635.176 261.266 m 0
 654.746 227.372 673.016 189.629 692.104 156.568 c 0
 706.713 131.265 743.869 69.9072 780.414 69.9072 c 0
 786.268 69.9072 796.014 70.1729 808.1 72.3262 c 0
 810.873 72.8203 829.037 75.7725 844.869 84.9131 c 0
 854.469 90.4541 863.463 98.5127 867.062 101.891 c 0
 892.5 125.762 933.682 145.582 958.986 146.132 c 0
 984.291 146.683 984.184 127.755 958.746 103.884 c 0
 938.164 84.5684 908.666 60.8984 871.219 39.2773 c 0
 821.826 10.7617 773.998 -5.27246 736.189 -12.0078 c 0
 718.455 -15.168 701.873 -16.6064 686.162 -16.6064 c 0
 640.172 -16.6064 606.045 11.6367 564.803 83.0703 c 0
 545.232 116.964 526.963 154.706 507.873 187.768 c 0
 493.264 213.071 456.107 274.43 419.562 274.43 c 0
 394.852 274.43 395.908 293.809 421.922 317.687 c 0
 447.936 341.564 489.104 360.943 513.814 360.943 c 0
 559.807 360.943 593.932 332.7 635.176 261.266 c 0
EndSplineSet
Fore
402 286 m 0
 402 312 473 361 514 361 c 0
 544 361 637 365 678 413 c 0
 698 437 711 472 711 504 c 0
 711 587 629 599 435 599 c 1
 420 430 373 243 284 49 c 0
 271 21 210 -17 174 -17 c 0
 163 -17 156 -12 156 -5 c 0
 156 13 293 254 310 599 c 1
 247 597 194 586 173 574 c 0
 170 572 156 559 149 531 c 0
 143 504 78 461 38 461 c 0
 27 461 20 465 20 472 c 0
 20 474 20 475 21 477 c 1
 45 575 165 637 242 661 c 0
 308 681 374 686 422 686 c 2
 549 686 l 2
 690 686 841 683 841 567 c 0
 841 465 745 363 604 309 c 1
 659 237 716 70 780 70 c 0
 829 70 851 87 867 102 c 0
 899 132 941 146 960 146 c 0
 972 146 978 142 978 134 c 0
 978 104 827 -17 686 -17 c 0
 602 -17 568 84 508 188 c 0
 493 213 456 274 420 274 c 0
 408 274 402 279 402 286 c 0
EndSplineSet
EndChar
StartChar: S
Encoding: 83 83 20
Width: 696
Flags: HMW
Back
588.002 526.223 m 2
 592.615 544.673 590.844 563.943 582.809 577.86 c 0
 579.79 583.088 572.527 593.593 557.983 598.38 c 0
 522.032 610.216 483.466 616.037 444.735 616.037 c 0
 418.646 616.037 397.797 612.145 384.255 608.551 c 0
 369.997 604.766 362.37 600.79 361.373 600.214 c 0
 358.57 598.596 350.157 589.435 344.643 578.502 c 0
 341.757 572.782 339.134 566.016 337.239 558.435 c 0
 331.047 533.668 334.531 511.58 345.569 492.462 c 0
 365.983 457.105 412.322 432.38 461.399 416.606 c 0
 534.133 393.23 612.361 362.59 645.256 305.619 c 0
 660.015 280.056 665.496 248.979 655.871 210.479 c 0
 653.492 200.962 647.755 181.872 635.008 160.557 c 0
 611.276 120.872 570.311 83.126 515.608 51.5439 c 0
 495.53 39.9521 472.507 28.5723 445.703 18.291 c 0
 374.586 -8.98828 305.928 -16.6064 255.062 -16.6064 c 0
 143.544 -16.6064 80.0098 31.6025 54.4619 55.167 c 0
 47.6035 61.4932 41.8906 68.6611 37.3584 76.5117 c 0
 15.377 114.584 26.8965 155.007 39.7676 179.856 c 0
 45.584 191.086 50.793 198.482 54.4395 203.349 c 0
 68.5557 222.185 89.0352 240.689 117.113 256.899 c 0
 155.86 279.271 185.124 283.342 199.86 283.342 c 0
 224.572 283.342 223.517 263.963 197.503 240.085 c 0
 171.489 216.208 130.321 196.828 105.609 196.828 c 0
 105.608 196.828 119.587 197.48 143.461 211.265 c 1
 143.085 211.047 168.926 230.358 168.924 230.355 c 0
 167.567 228.546 165.652 225.429 163.708 221.676 c 0
 153.01 201.021 150.695 174.197 164.661 150.01 c 0
 168.241 143.809 172.764 138.155 178.051 133.278 c 0
 233.036 82.5635 301.253 69.9072 349.313 69.9072 c 0
 401.02 69.9072 445.875 79.3125 473.123 89.7646 c 0
 481.174 92.8525 486.276 95.457 489.26 97.1787 c 0
 489.957 97.582 501.851 103.635 513.698 123.447 c 0
 518.896 132.139 523.761 143.182 526.96 155.979 c 0
 534.323 185.433 530.42 210.528 517.953 232.12 c 0
 490.177 280.229 419.148 309.889 348.466 332.605 c 0
 309.795 345.033 246.245 370.506 218.267 418.964 c 0
 204.988 441.963 199.783 469.758 208.328 503.936 c 0
 211.009 514.66 214.93 525.25 220.316 535.93 c 0
 240.537 576.015 281.573 614.989 335.024 645.85 c 0
 372.783 667.649 408.667 680.959 439.898 689.248 c 0
 461.91 695.09 496.762 702.551 538.988 702.55 c 0
 586.869 702.55 630.984 695.528 671.184 682.296 c 0
 689.889 676.138 702.166 665.118 710.111 651.358 c 0
 721.136 632.264 723.697 607.855 716.914 580.722 c 2
 715.735 576.008 l 2
 711.101 557.464 678.463 530.206 642.883 515.164 c 0
 607.304 500.121 582.189 502.963 586.824 521.507 c 2
 588.002 526.223 l 2
EndSplineSet
Fore
586 517 m 0
 586 523 590 529 590 547 c 0
 590 574 578 592 558 598 c 0
 522 610 483 616 445 616 c 0
 411 616 375 608 361 600 c 0
 351 594 334 567 334 535 c 0
 334 488 372.138 445.436 461 417 c 0
 561 385 661 340 661 247 c 0
 661 110 464 -17 255 -17 c 0
 134 -17 56 44 37 77 c 0
 29 91 25 107 25 124 c 0
 25 210 132 283 200 283 c 0
 212 283 218 279 218 271 c 0
 218 260 201 236 160 214 c 1
 157 206 155 196 155 186 c 0
 155 168 161 149 178 133 c 0
 233 83 301 70 349 70 c 0
 412 70 466 84 489 97 c 0
 510 109 530 146 530 184 c 0
 530 258 457 298 348 333 c 0
 294.098 350.308 204 389 204 472 c 0
 204 587 375 703 539 703 c 0
 587 703 631 696 671 682 c 0
 694 675 720 653 720 610 c 0
 720 600 719 588 716 576 c 0
 709 549 644 506 604 506 c 0
 593 506 586 510 586 517 c 0
EndSplineSet
EndChar
StartChar: T
Encoding: 84 84 21
Width: 642
Flags: HMW
Back
320.636 145.011 m 2
 424.9 562.072 l 2
 429.553 580.681 464.686 609.793 503.322 627.057 c 0
 541.959 644.32 569.54 643.229 564.889 624.621 c 2
 460.623 207.561 l 2
 443.512 139.114 418.017 70.6699 384.372 3.43066 c 0
 373.846 -17.6064 334.896 -46.207 297.432 -60.4111 c 0
 259.967 -74.6143 238.104 -69.0684 248.63 -48.0312 c 0
 279.978 14.6172 304.273 79.5605 320.636 145.011 c 2
870.732 628.9 m 0
 843.356 613.096 820.238 604.595 796.452 599.502 c 0
 778.388 595.634 761.025 593.662 718.131 593.662 c 2
 221.118 593.662 l 2
 210.629 593.662 198.584 591.961 191.87 589.457 c 0
 191.854 589.451 193.447 590.139 195.735 591.46 c 1
 195.729 591.455 199.747 593.896 200.536 594.607 c 1
 198.52 592.788 182.071 576.188 177.843 547.473 c 0
 175.241 529.804 141.617 500.674 102.789 482.449 c 0
 63.96 464.226 34.5586 463.775 37.1602 481.443 c 0
 40.7207 505.63 53.7705 544.577 102.865 588.892 c 0
 118.547 603.045 141.227 620.502 169.532 636.845 c 0
 187.403 647.163 208.536 657.676 231.838 666.365 c 0
 274.923 682.434 306.56 685.629 328.685 685.629 c 2
 825.696 685.629 l 2
 835.027 685.629 863.424 685.486 875.112 687.989 c 0
 875.201 688.008 864.521 685.829 844.528 674.286 c 1
 846.272 675.293 678.429 540.03 820.142 657.488 c 0
 820.153 657.498 805.178 642.67 805.178 642.67 c 1
 809.83 661.278 844.963 690.391 883.599 707.654 c 0
 922.235 724.918 949.817 723.827 945.166 705.22 c 1
 931.664 678.048 931.495 674.173 907.241 654.07 c 0
 901.112 648.99 878.389 633.321 870.732 628.9 c 0
EndSplineSet
Fore
246 -57 m 0
 246 -44 288 15 321 145 c 2
 425 562 l 2
 427 571 436 582 450 594 c 1
 221 594 l 2
 210 594 202 592 197 591 c 1
 191 584 181 569 178 547 c 0
 174 520 96 468 54 468 c 0
 43 468 37 472 37 479 c 0
 37 556 191 686 329 686 c 2
 845 686 l 1
 864 699 903 720 929 720 c 0
 939 720 946 716 946 709 c 0
 946 708.059 938.257 667.696 871 629 c 0
 818.965 599.062 779 594 718 594 c 2
 557 594 l 1
 461 208 l 2
 443.849 139.037 418 71 384 3 c 0
 370 -26 301 -68 263 -68 c 0
 252 -68 246 -65 246 -57 c 0
EndSplineSet
EndChar
StartChar: U
Encoding: 85 85 22
Width: 715
Flags: HMW
Back
272.32 38.9766 m 0
 214.457 5.56836 154.642 -16.6064 104.952 -16.6064 c 0
 53.915 -16.6064 24.9619 8.30762 10.2305 33.8232 c 0
 -6.5791 62.9365 -17.5166 114.24 -0.34375 182.933 c 0
 36.127 328.816 166.891 542.779 138.688 591.628 c 0
 137.937 592.927 136.677 594.809 134.556 596.42 c 0
 131.494 598.747 128.252 599.374 125.098 599.374 c 0
 119.275 599.374 114.314 598.963 111.423 598.657 c 0
 96.4375 597.068 85.0215 593.312 78.1523 589.346 c 0
 77.7217 589.098 77.3936 588.901 76.9688 588.639 c 0
 42.5566 567.379 6.38281 558.947 -3.77637 569.817 c 0
 -13.9365 580.688 5.74707 606.765 40.1582 628.024 c 0
 42.459 629.446 49.4541 633.625 51.8037 634.981 c 0
 103.023 664.553 151.84 680.051 193.94 684.513 c 0
 204.669 685.649 212.239 685.888 219.35 685.888 c 0
 236.39 685.888 248.47 682.01 256.522 675.89 c 0
 260.122 673.154 263.179 669.994 265.989 665.126 c 0
 303.45 600.244 165.878 386.674 128.566 237.432 c 0
 113.595 177.541 122.88 132.698 137.532 107.321 c 0
 153.179 80.2217 176.608 69.9072 199.204 69.9072 c 0
 212.957 69.9072 226.616 73.4365 245.972 84.6113 c 0
 381.992 163.143 602.261 451.763 643.166 615.382 c 0
 647.802 633.926 680.44 661.185 716.021 676.226 c 0
 751.6 691.268 776.713 688.425 772.077 669.881 c 0
 727.078 489.886 490.13 164.729 272.32 38.9766 c 0
626.755 216.34 m 0
 615.925 173.021 609.884 129.679 608.786 87.2207 c 0
 608.655 82.165 609.83 77.5186 612.011 73.7412 c 0
 613.222 71.6436 617.561 64.8799 626.573 63.207 c 0
 631.421 62.3076 627.857 66.0205 605.819 54.9014 c 1
 651.918 78.1592 l 2
 687.757 96.2412 718.242 98.2598 719.967 82.665 c 0
 721.69 67.0713 694.003 39.7393 658.164 21.6572 c 2
 612.063 -1.60156 l 2
 562.426 -26.6445 530.523 -24.292 519.374 -22.2227 c 0
 502.145 -19.0244 491.256 -11.0967 484.708 0.243164 c 0
 480.706 7.17578 478.543 15.4707 478.795 25.2168 c 0
 479.949 69.8623 486.293 115.638 497.844 161.842 c 0
 536.009 314.501 584.884 467.062 644.156 618.446 c 0
 651.907 638.243 686.631 665.145 721.663 678.495 c 0
 756.696 691.845 778.838 686.613 771.087 666.816 c 0
 712.707 517.711 664.461 367.164 626.755 216.34 c 0
EndSplineSet
Fore
626 63 m 1
 628 63 l 1
 628 63 627 63 626 63 c 1
272 636 m 0
 272 533 121 309 121 179 c 0
 121 117 148 70 199 70 c 0
 288 70 514 325 608 522 c 2
 644 618 l 2
 654.11 644.959 716 686 755 686 c 0
 763 686 773 684 773 674 c 0
 773 662 753 607 734 568 c 0
 680 419 609 189 609 95 c 0
 609 82 610 68 623 64 c 1
 652 78 l 2
 672 88 690 93 702 93 c 0
 711 93 720 91 720 81 c 0
 720 65 693 39 658 22 c 2
 612 -2 l 2
 582 -17 556 -23 535 -23 c 0
 500 -23 479 -5 479 24 c 0
 479 104 506 196 523 256 c 1
 339 47 189 -17 105 -17 c 0
 32 -17 -9 35 -9 116 c 0
 -9 250 143 490 143 574 c 0
 143 588 138 599 125 599 c 0
 70 599 57 565 13 565 c 0
 1 565 -6 570 -6 578 c 0
 -6 590 8 608 40 628 c 2
 52 635 l 2
 126 678 186 686 219 686 c 2
 221 686 l 2
 247 686 272 676 272 636 c 0
EndSplineSet
EndChar
StartChar: V
Encoding: 86 86 23
Width: 735
Flags: HMW
Back
179.017 516.694 m 0
 144.459 576.551 100.156 602.866 51.5586 602.866 c 0
 27.251 602.866 26.7568 621.467 50.4561 644.386 c 0
 74.1543 667.305 113.116 685.905 137.424 685.905 c 0
 220.392 685.905 268.552 639.074 299.161 586.058 c 0
 382.398 441.889 376.046 171.84 368.775 60.4297 c 1
 327.509 30.5547 294.26 9.29102 277.344 0 c 1
 242.062 -42.8789 l 1
 242.069 -41.4766 242.28 -39.96 242.709 -38.333 c 1
 239.986 -48.6699 285.919 331.535 179.017 516.694 c 0
701.096 460.142 m 0
 702.454 463.873 703.187 466.519 703.648 468.367 c 0
 703.764 468.83 703.185 466.104 703.192 466.165 c 0
 705.476 484.059 689.674 523.599 645.526 539.667 c 0
 633.04 544.211 618.939 546.702 603.694 546.702 c 0
 588.38 546.702 585.662 577.838 597.628 616.202 c 0
 609.593 654.566 631.733 685.703 647.048 685.703 c 0
 664.696 685.703 681.014 682.842 695.694 677.499 c 0
 735.062 663.171 784.205 622.106 771.742 524.431 c 0
 770.908 517.894 769.047 505.362 765.123 489.664 c 0
 761.133 473.703 756.134 457.613 750.508 442.157 c 0
 745.553 428.543 740.125 415.42 734.438 402.935 c 0
 617.61 146.427 276.616 -59.9756 263.483 -67.1885 c 0
 245.618 -77 237.328 -54.8623 244.979 -17.7744 c 0
 252.63 19.3145 273.339 57.3779 291.204 67.1895 c 0
 388.178 120.446 635.51 315.193 696.896 449.976 c 0
 698.724 453.987 700.075 457.336 701.096 460.142 c 0
EndSplineSet
Fore
250 137 m 0
 250 335 210 603 52 603 c 0
 39 603 33 608 33 615 c 0
 33 644 101 686 137 686 c 0
 326 686 373 437 373 183 c 0
 373 160 372 139 372 119 c 1
 532 235 671 379 701 460 c 0
 704 468 703 468 703 470 c 0
 703 498 671 547 604 547 c 0
 595 547 590 557 590 573 c 0
 590 618 624 686 647 686 c 0
 723 686 774 635 774 554 c 0
 774 524 766 473 734 403 c 0
 619 149 269 -70 256 -70 c 0
 247 -70 242 -59 242 -43 c 0
 242 -37 250 44 250 137 c 0
EndSplineSet
EndChar
StartChar: W
Encoding: 87 87 24
Width: 1165
Flags: HMW
Back
162.476 529.855 m 0
 132.733 581.37 94.0879 602.866 51.5586 602.866 c 0
 27.251 602.866 26.7568 621.467 50.4561 644.386 c 0
 74.1543 667.305 113.116 685.905 137.424 685.905 c 0
 231.356 685.905 269.609 621.753 282.62 599.219 c 0
 343.916 493.054 345.543 304.899 336.423 169.444 c 1
 389.552 230.748 439.607 293.791 486.316 358.135 c 0
 542.175 435.083 593.072 513.646 638.757 593.047 c 1
 630.812 610.519 l 2
 624.694 623.776 646.83 649.71 680.223 668.404 c 0
 713.615 687.1 745.682 691.512 751.8 678.253 c 0
 800.195 573.377 838.548 462.66 866.487 347.159 c 0
 887.093 261.979 901.985 174.396 911.096 84.8623 c 1
 874.115 43.8818 843.73 13.377 829.239 0 c 2
 793.934 -42.9092 l 1
 786.276 68.9102 769.641 177.955 744.158 283.3 c 0
 723.903 367.033 698.105 448.235 666.915 526.479 c 1
 614.121 433.853 556.205 344.283 493.619 258.068 c 0
 412.361 146.131 323.492 40.1895 227.845 -59.2285 c 0
 209.862 -77.9189 196.572 -70.3242 196.592 -42.793 c 1
 196.518 -42.8838 l 1
 196.518 -42.375 196.549 -41.8516 196.605 -41.3135 c 0
 196.633 -39.7266 196.703 -38.0762 196.817 -36.3643 c 0
 197.306 -29.0566 198.557 -21.2422 200.42 -13.2891 c 0
 211.788 73.8652 248.517 380.83 162.476 529.855 c 0
1129.81 452.411 m 0
 1132.11 458.711 1133.67 463.855 1134.79 468.367 c 0
 1135.84 472.567 1135.73 477.679 1134.82 484.76 c 0
 1132.19 505.41 1119.69 531.593 1090.71 542.14 c 0
 1082.62 545.082 1073.49 546.702 1063.37 546.702 c 0
 1048.06 546.702 1045.34 577.838 1057.31 616.202 c 0
 1069.27 654.566 1091.41 685.702 1106.73 685.702 c 0
 1119.2 685.702 1130.6 683.713 1140.87 679.973 c 0
 1173.15 668.226 1197.83 637.681 1204.22 587.661 c 0
 1207.4 562.786 1206.46 530.451 1196.27 489.665 c 0
 1191.6 470.981 1185.75 452.347 1179.23 434.428 c 0
 1095.17 203.505 845.481 -40.7314 822.738 -61.7256 c 0
 803.638 -79.3564 791.048 -66.0127 794.638 -31.9404 c 0
 798.226 2.13184 816.641 44.0947 835.741 61.7266 c 0
 913.33 133.348 1086.87 334.434 1129.81 452.411 c 0
EndSplineSet
Fore
1135 480 m 0
 1135 507 1113 547 1063 547 c 0
 1054 547 1050 557 1050 573 c 0
 1050 618 1084 686 1107 686 c 0
 1175 686 1206 629 1206 561 c 0
 1206 330 881 -8 823 -62 c 0
 817 -67 812 -70 808 -70 c 0
 799 -70 794 -60 794 -43 c 0
 778 187 726 379 667 526 c 1
 544 310 395 115 228 -59 c 0
 221 -66 215 -70 210 -70 c 0
 202 -70 197 -58 197 -42 c 0
 196 -34 218 88 218 233 c 0
 218 399 185 603 52 603 c 0
 39 603 33 608 33 615 c 0
 33 644 101 686 137 686 c 0
 259 686 340 577 340 286 c 0
 340 245 339 205 336 169 c 1
 449 299 552 443 639 593 c 1
 631 611 l 1
 630 612 630 614 630 615 c 0
 630 644 698 686 734 686 c 0
 743 686 749 683 752 678 c 0
 828 514 880 332 906 133 c 1
 993 229 1135 411 1135 480 c 0
EndSplineSet
EndChar
StartChar: X
Encoding: 88 88 25
Width: 815
Flags: HMW
Back
707.251 31.0215 m 0
 693.108 22.8555 665.76 8.4541 629.125 3.03418 c 0
 615.786 1.06152 602.981 0.0566406 568.633 0.0566406 c 0
 542.863 0.0566406 510.32 7.16992 488.571 44.8389 c 0
 479.961 59.7529 469.789 84.2158 464.51 130.374 c 2
 423.379 489.968 l 2
 418.597 531.787 409.655 554.097 401.855 567.607 c 0
 388.952 589.955 371.168 599.374 354.844 599.374 c 0
 334.297 599.374 321.529 599.218 311.961 597.803 c 0
 306.606 597.01 317.82 598.314 336.827 609.287 c 1
 336.657 609.144 371.66 638.847 371.659 638.845 c 0
 371.447 638.403 371.587 639.058 371.066 636.978 c 0
 366.431 618.433 333.792 591.175 298.212 576.133 c 0
 262.633 561.092 237.52 563.935 242.155 582.479 c 0
 242.749 584.851 245.446 592.38 246.712 595.011 c 0
 259.753 622.11 282.43 631.201 310.479 654.923 c 1
 345.358 675.061 373.466 680.67 388.604 682.909 c 0
 401.943 684.883 414.747 685.888 449.097 685.887 c 0
 474.866 685.887 507.409 678.773 529.158 641.105 c 0
 537.769 626.191 547.94 601.729 553.22 555.57 c 2
 594.351 195.977 l 2
 599.133 154.156 608.074 131.847 615.874 118.337 c 0
 628.777 95.9883 646.562 86.5703 662.886 86.5703 c 0
 683.433 86.5703 696.2 86.7256 705.769 88.1416 c 0
 711.123 88.9336 702.395 89.0645 680.903 76.6562 c 1
 680.911 76.6611 659.552 61.791 659.557 61.7949 c 0
 659.557 61.7949 646.444 48.127 646.663 48.9668 c 0
 651.529 67.6084 683.938 94.7695 719.518 109.811 c 0
 755.097 124.853 780.21 122.01 775.574 103.465 c 1
 762.708 76.7305 762.728 73.0215 740.301 54.0547 c 0
 734.735 49.3477 714.203 35.0352 707.251 31.0215 c 0
62.2666 29.7441 m 0
 55.2275 41.9355 52.7188 57.1055 57.3525 75.6377 c 0
 64.1416 102.798 96.292 137.072 142.784 172.478 c 0
 188.375 207.195 241.638 239.68 299.175 272.898 c 0
 408.825 336.205 536.492 402.319 634.113 458.681 c 0
 693.332 492.871 729.056 516.366 749.251 531.745 c 0
 755.809 536.738 771.636 548.86 773.373 555.807 c 0
 775.677 565.023 774.536 574.961 770.066 582.702 c 0
 762.35 596.068 748.835 599.374 741.9 599.374 c 0
 717.188 599.374 718.244 618.753 744.258 642.631 c 0
 770.271 666.508 811.439 685.887 836.152 685.888 c 0
 869.736 685.888 888.673 671.262 897.369 656.2 c 0
 904.408 644.009 906.917 628.839 902.284 610.306 c 0
 895.494 583.146 863.345 548.871 816.853 513.467 c 0
 771.262 478.748 717.999 446.265 660.462 413.046 c 0
 550.812 349.739 423.145 283.625 325.523 227.264 c 0
 266.305 193.073 230.58 169.578 210.386 154.199 c 0
 203.827 149.205 188 137.084 186.263 130.137 c 0
 183.959 120.921 185.1 110.983 189.569 103.242 c 0
 197.286 89.876 210.802 86.5693 217.737 86.5693 c 0
 242.448 86.5693 241.391 67.1895 215.377 43.3115 c 0
 189.363 19.4346 148.194 0.0556641 123.483 0.0566406 c 0
 89.8994 0.0566406 70.9629 14.6826 62.2666 29.7441 c 0
EndSplineSet
Fore
236 75 m 0
 236 49 165 0 123 0 c 0
 83 0 55 23 55 58 c 0
 55 101 97 156 299 273 c 2
 439 351 l 1
 423 490 l 2
 414 576 382 599 355 599 c 2
 339 599 l 1
 320 586 286 566 260 566 c 0
 248 566 242 571 242 578 c 0
 242 610 293 640 310 655 c 1
 357 682 394 686 449 686 c 0
 512 686 543 642 553 556 c 2
 568 422 l 1
 634 459 l 2
 775 540 775 552 775 565 c 0
 775 585 759 599 742 599 c 0
 730 599 724 604 724 611 c 0
 724 637 795 686 836 686 c 0
 877 686 905 663 905 628 c 0
 905 585 863 530 660 413 c 2
 575 366 l 1
 594 196 l 2
 604 110 635 87 663 87 c 2
 679 87 l 1
 698 100 732 119 758 119 c 0
 769 119 776 115 776 108 c 2
 776 103 l 1
 763 77 763 73 740 54 c 0
 676 0 613 0 569 0 c 0
 506 0 474 44 465 130 c 2
 446 294 l 1
 326 227 l 2
 185 146 185 134 185 121 c 0
 185 101 201 87 218 87 c 0
 230 87 236 82 236 75 c 0
EndSplineSet
EndChar
StartChar: Y
Encoding: 89 89 26
Width: 758
Flags: HMW
Back
368.947 -10.2607 m 1
 371.622 75.6309 374.047 348.051 283.658 504.606 c 0
 246.314 569.287 199.319 600.362 147.838 602.72 c 1
 126.377 585.202 96.582 571.035 74.6094 568.851 c 0
 47.7021 566.176 42.668 582.477 63.3652 605.241 c 0
 65.5508 607.645 72.7246 614.937 75.2949 617.354 c 0
 98.9453 639.604 119.899 650.483 125.26 654.158 c 0
 166.31 677.857 203.336 685.905 227.319 685.905 c 0
 317.041 685.905 369.641 633.137 403.803 573.97 c 0
 481.526 439.352 492.794 209.898 492.595 90.9746 c 1
 450.666 52.2959 408.327 18.0527 368.947 -10.2607 c 1
151.618 608.504 m 1
 151.618 608.504 l 1
167.865 -30.0947 m 0
 182.336 -35.3613 198.524 -38.1982 215.849 -38.1982 c 0
 294.069 -38.1982 636.532 214.873 722.227 450.31 c 0
 726.415 461.816 729.85 472.954 732.622 484.044 c 0
 734.319 490.834 732.517 500.42 731.682 503.976 c 0
 726.99 523.945 711.103 548.839 677.923 560.915 c 0
 666.186 565.188 652.922 567.537 638.534 567.537 c 0
 623.32 567.537 618.696 593.969 628.212 626.537 c 0
 637.729 659.105 657.799 685.537 673.013 685.538 c 0
 690.192 685.538 706.066 682.754 720.375 677.547 c 0
 738.865 670.816 780.677 649.19 794.045 592.288 c 0
 799.702 568.207 800.838 535.521 790.621 494.658 c 0
 785.375 473.671 778.894 452.776 771.472 432.386 c 0
 660.203 126.686 283.66 -156.198 181.37 -156.198 c 0
 161.245 -156.198 142.456 -152.929 125.414 -146.726 c 0
 85.1494 -132.07 49.8906 -98.8877 37.2861 -43.9531 c 0
 32.3008 -22.2266 42.2451 15.0967 59.4834 39.3594 c 0
 76.7217 63.6211 94.7588 65.6787 99.7432 43.9521 c 0
 105.638 18.2637 125.529 -14.6855 167.865 -30.0947 c 0
EndSplineSet
Fore
51 581 m 0
 51 610.25 148.142 686 227 686 c 0
 427 686 486 410 492 141 c 1
 695 327 733 472 733 492 c 0
 733 519 705 568 639 568 c 0
 629 568 623 579 623 595 c 0
 623 636 653 686 673 686 c 0
 744 686 798 637 798 553 c 0
 798 535 796 516 791 495 c 0
 707 159 289 -156 181 -156 c 0
 73 -156 36 -66 36 -31 c 0
 36 10 66 59 86 59 c 0
 92 59 97 54 100 44 c 0
 109 3 149 -38 216 -38 c 0
 243 -38 301 -8 370 41 c 1
 370 52 l 2
 370 375 288 596 148 603 c 1
 138 595 101 569 69 569 c 0
 57 569 51 573 51 581 c 0
EndSplineSet
EndChar
StartChar: Z
Encoding: 90 90 27
Width: 817
Flags: HMW
Back
660.966 581.166 m 0
 565.555 581.166 491.575 593.662 402.979 593.662 c 0
 379.777 593.663 357.915 588.987 348.803 584.831 c 1
 348.803 584.831 350.659 585.827 350.657 585.826 c 0
 350.549 585.764 354.965 588.615 355.399 589.013 c 1
 354.43 588.125 342.386 576.666 336.552 553.329 c 0
 331.899 534.722 296.767 505.608 258.13 488.345 c 0
 219.493 471.081 191.912 472.172 196.563 490.78 c 0
 201.921 512.207 214.959 544.121 256.063 581.782 c 0
 271.894 596.286 295.375 614.423 324.454 631.211 c 0
 335.594 637.643 347.551 644.006 362.601 650.871 c 0
 424.802 679.242 477.731 685.629 510.546 685.629 c 0
 605.956 685.629 679.936 673.132 768.531 673.132 c 0
 780.264 673.132 789.348 674.646 795.418 676.025 c 0
 799.597 676.975 802.792 677.986 804.794 678.71 c 0
 841.83 692.101 862.191 685.467 850.243 663.903 c 0
 838.295 642.34 798.54 613.972 761.504 600.581 c 0
 748.264 595.794 734.941 591.652 719.312 588.102 c 0
 697.571 583.162 678.499 581.165 660.966 581.166 c 0
466.343 370.661 m 0
 556.641 450.79 643.247 536.687 725.052 627.578 c 0
 747.097 652.071 791.015 677.355 823.085 684.018 c 0
 855.154 690.679 863.291 676.207 841.246 651.714 c 0
 754.34 555.154 661.183 462.59 562.05 374.621 c 0
 430.011 257.451 292.733 145.331 150.715 38.8086 c 0
 117.325 13.7646 74.0039 -3.20508 54.0146 0.928711 c 0
 34.0254 5.0625 44.9014 28.7432 78.291 53.7871 c 0
 211.226 153.496 340.781 259.239 466.343 370.661 c 0
657.826 40.9629 m 0
 649.309 36.0449 607.482 12.2998 563.698 3.75391 c 0
 552.507 1.57031 541.843 0.31543 529.954 0.31543 c 0
 401.82 0.31543 280.023 12.8115 157.689 12.8115 c 0
 144.292 12.8115 114.771 12.0303 79.2314 3.00586 c 0
 45.5361 -5.5498 33.9912 6.90137 53.4609 30.7988 c 0
 72.9316 54.6963 116.08 81.0352 149.774 89.5908 c 0
 191.489 100.183 229.58 104.778 265.255 104.778 c 0
 393.389 104.778 515.187 92.2822 637.521 92.2822 c 0
 641.028 92.2822 643.984 92.5928 645.867 92.96 c 0
 647.161 93.2129 640.337 91.3789 631.623 86.3477 c 1
 631.624 86.3486 622.43 79.9404 624.321 81.6377 c 0
 630.746 87.4014 656.188 115.576 667.797 162.012 c 0
 672.448 180.619 707.581 209.732 746.218 226.996 c 0
 784.854 244.26 812.436 243.169 807.784 224.561 c 0
 802.201 202.229 784.422 143.363 721.301 86.7334 c 0
 705.32 72.3955 683.987 56.0664 657.826 40.9629 c 0
590.635 334.959 m 0
 590.586 335.044 593.539 332.051 593.53 332.055 c 0
 581.824 337.339 528.102 337.142 485.801 337.142 c 2
 326.599 337.141 l 2
 304.396 337.141 299.097 353.045 314.771 372.641 c 0
 330.445 392.236 361.187 408.141 383.39 408.141 c 2
 542.591 408.141 l 2
 613.151 408.142 656.423 406.897 674.989 398.517 c 0
 680.478 396.039 683.669 393.134 685.601 389.787 c 0
 686.896 387.543 687.812 378.816 687.02 375.644 c 0
 682.612 358.015 657.27 336.763 630.45 328.207 c 0
 603.632 319.651 585.443 327.016 589.851 344.646 c 0
 590.635 334.959 l 0
EndSplineSet
Fore
688 382 m 0
 688 358 644 325 610 325 c 0
 601 325 594 328 591 333 c 1
 579 336 550 337 520 337 c 1
 440 267 346 189 236 104 c 1
 246 104 255 105 265 105 c 0
 392 105 513 93 634 92 c 1
 644 105 660 129 668 162 c 0
 674 189 749 239 792 239 c 0
 802 239 808 236 808 228 c 0
 808 225 l 0
 774 91 623 0 530 0 c 0
 402 0 280 13 158 13 c 0
 101 13 80 0 61 0 c 0
 53 0 44 2 44 11 c 0
 44 25 67 47 88 61 c 0
 225 165 338 257 429 337 c 1
 327 337 l 2
 313 337 306 343 306 352 c 0
 306 375 350 408 383 408 c 2
 507 408 l 1
 586 480 643 539 683 582 c 1
 676 582 668 581 661 581 c 0
 566 581 492 594 403 594 c 0
 383 594 364 590 353 586 c 1
 349 582 341 571 337 553 c 0
 330 527 256 476 213 476 c 0
 202 476 196 480 196 487 c 0
 196 488 196 489 197 491 c 1
 222 594 385 686 511 686 c 0
 606 686 680 673 769 673 c 0
 804 673 812 686 837 686 c 0
 848 686 854 682 854 675 c 0
 854 667 846 656 837 647 c 0
 781 585 704 505 598 408 c 1
 659 406 688 401 688 382 c 0
EndSplineSet
EndChar
